<svg xmlns="http://www.w3.org/2000/svg" viewBox="0 0 199.8 219.6">
  <path fill="#655B57" d="M185 136.4L93.4 83.2l14.7-8.5 91.6 53.3"/>
  <path fill="#C88E76" d="M153.1 219.6l-91.6-53.3-.3-35.6 91.6 53.3"/>
  <path fill="#655B57" d="M126.3 170.4l-91.6-53.3 26.6-15.3 91.6 53.2"/>
  <path fill="#BD8B75" d="M152.9 155l-91.6-53.2 3.5-43 91.6 53.3"/>
  <path fill="#655B57" d="M156.4 112.1L64.8 58.8l28.5-16.4 91.6 53.2"/>
  <path fill="#C78E76" d="M91.7 219.2L.1 166 0 140.6l91.6 53.2"/>
  <path fill="#806E65" d="M132.2 57.5l28.5-4.3-34.4 117.2 26.6-15.4 3.5-42.9 28.5-16.5.1 40.8 14.7-8.4.1 28.8-14.7 8.5.1 35.7-32.1 18.6-.3-35.6-61.1 35.2-.1-25.4"/>
  <path fill="#857167" d="M132.2 57.5L40.5 4.2 69.1 0l91.6 53.2"/>
  <path fill="#9E7E70" d="M91.6 193.8L0 140.6 40.5 4.2l91.7 53.3"/>
</svg>