<svg xmlns="http://www.w3.org/2000/svg" viewBox="0 0 348.333 348.334">
  <path fill="#FFF" d="M336.56 68.61L231.015 174.166l105.543 105.55c15.698 15.704 15.698 41.144 0 56.85-7.845 7.843-18.13 11.768-28.408 11.768-10.296 0-20.58-3.92-28.42-11.77l-105.565-105.56L68.61 336.563c-7.844 7.844-18.13 11.77-28.417 11.77-10.285 0-20.563-3.92-28.413-11.77-15.7-15.698-15.7-41.14 0-56.85l105.54-105.55L11.774 68.612c-15.7-15.698-15.7-41.144 0-56.843C27.47-3.92 52.9-3.92 68.604 11.767L174.165 117.32 279.72 11.768c15.706-15.687 41.14-15.687 56.833 0 15.705 15.7 15.705 41.145.006 56.844z"/>
</svg>