<?xml version="1.0" encoding="utf-8"?>
<!-- Generator: Adobe Illustrator 21.0.2, SVG Export Plug-In . SVG Version: 6.00 Build 0)  -->
<svg version="1.1" id="Layer_1" xmlns="http://www.w3.org/2000/svg" xmlns:xlink="http://www.w3.org/1999/xlink" x="0px" y="0px"
	 viewBox="0 0 297.5 419.9" enable-background="new 0 0 297.5 419.9" xml:space="preserve">
<g>
	<path fill="#131313" d="M233.1,15.5h-24.7l25.7,27.9v13.3h-52.9V41.1h25.7l-25.7-27.9V0h51.9L233.1,15.5L233.1,15.5z M170.7,15.5
		H146l25.7,27.9v13.3h-52.9V41.1h25.7l-25.7-27.9V0h51.9L170.7,15.5L170.7,15.5z M108.9,16.2H82.3v24.3h26.6v16.2H63.4V0h45.6V16.2
		L108.9,16.2z"/>
	<path fill="#1572B6" d="M27.1,386.2L0,82.5h297.5l-27.1,303.6l-121.8,33.8L27.1,386.2L27.1,386.2z"/>
	<path fill="#33A9DC" d="M148.7,394.1l98.4-27.3l23.2-259.4H148.7V394.1z"/>
	<path fill="#FFFFFF" d="M148.7,217.4H198l3.4-38.1h-52.7V142h93.4l-0.9,10l-9.2,102.6h-83.3L148.7,217.4L148.7,217.4z"/>
	<path fill="#EBEBEB" d="M148.9,314.1l-0.2,0l-41.5-11.2l-2.7-29.7H67.3l5.2,58.5l76.3,21.2l0.2,0L148.9,314.1L148.9,314.1z"/>
	<path fill="#FFFFFF" d="M194.8,253l-4.5,49.9l-41.5,11.2v38.7l76.3-21.2l0.6-6.3l6.5-72.4H194.8L194.8,253z"/>
	<path fill="#EBEBEB" d="M148.9,142v37.2H58.9l-0.7-8.4L56.5,152l-0.9-10L148.9,142L148.9,142z M148.7,217.4v37.2h-40.9l-0.7-8.4
		l-1.7-18.9l-0.9-10L148.7,217.4L148.7,217.4z"/>
</g>
</svg>
