<svg viewBox="0 0 297.5 419.9"><path fill="#efefef" d="M233.1 15.5h-24.7l25.7 27.9v13.3h-52.9V41.1h25.7l-25.7-27.9V0h51.9v15.5zm-62.4 0H146l25.7 27.9v13.3h-52.9V41.1h25.7l-25.7-27.9V0h51.9v15.5zm-61.8.7H82.3v24.3h26.6v16.2H63.4V0H109v16.2h-.1z"/><path fill="#1572B6" d="M27.1 386.2L0 82.5h297.5l-27.1 303.6-121.8 33.8-121.5-33.7z"/><path fill="#33A9DC" d="M148.7 394.1l98.4-27.3 23.2-259.4H148.7v286.7z"/><path fill="#FFF" d="M148.7 217.4H198l3.4-38.1h-52.7V142h93.4l-.9 10-9.2 102.6h-83.3v-37.2z"/><path fill="#EBEBEB" d="M148.9 314.1h-.2l-41.5-11.2-2.7-29.7H67.3l5.2 58.5 76.3 21.2h.2l-.1-38.8z"/><path fill="#FFF" d="M194.8 253l-4.5 49.9-41.5 11.2v38.7l76.3-21.2.6-6.3 6.5-72.4h-37.4v.1z"/><path fill="#EBEBEB" d="M148.9 142v37.2h-90l-.7-8.4-1.7-18.8-.9-10h93.3zm-.2 75.4v37.2h-40.9l-.7-8.4-1.7-18.9-.9-10 44.2.1z"/></svg>