<svg viewBox="0 0 51.9 53.8"><path d="M23.1 1.4c-5.7.6-11.4.8-17 1H4.9 5c.1 0 0 0 0 0h-.1s-.1 0-.1.1c-.3.3-.7.8-1 1.4-.5 1.1-.9 2.4-1 3.6-.1 1.2 0 2.7-.1 4.1 0 1.4-.1 2.8-.1 4.3-.2 5.7-.7 11.4-.8 17v10.6c0 .7 0 1.4.1 2.1.2 1.3.6 2.6 1.4 3.6.7 1 1.8 1.8 2.8 1.9h2l2.1-.1c2.8-.1 5.7-.2 8.5-.2 5.7-.1 11.4-.2 17-.2 2.8.1 5.7.1 8.5.1 1.4 0 3 .2 3.8-.1.2-.1.3-.1.4-.2.1-.1.2-.2.3-.4.2-.4.3-1.1.4-1.7.1-2.7.3-5.7.4-8.5.2-2.8.4-5.7.6-8.5h.3c.5 5.7.8 11.3 1 17.1 0 .8-.1 1.6-.4 2.5-.2.9-1.2 2-2.2 2.3-1 .4-1.8.4-2.5.4l-2.2.1c-2.8.1-5.7.1-8.5.1-5.7 0-11.4-.1-17-.2-2.8-.1-5.7-.1-8.5-.2L8 53.3H6.4c-.2 0-.5 0-.7-.1-1.8-.4-3.1-1.7-3.9-3C1 48.8.6 47.3.5 45.8v-4.3c.1-2.8.1-5.7 0-8.5-.1-5.7-.6-11.4-.8-17 .4-1.6.3-3 .3-4.4 0-1.4-.1-2.8.1-4.4.2-1.6.7-3.1 1.5-4.5.4-.7.9-1.4 1.6-2 .1-.1.2-.2.3-.2.2-.1.3-.2.5-.2.2-.1.3-.1.5-.2H6c5.7.2 11.4.4 17 1v.3z"/><path stroke="#000" stroke-width="3" stroke-miterlimit="10" d="M17.9 30.8l4 4.2c.4.5 1.2.5 1.7.1L40 19.6c.5-.4 1.2-.4 1.7.1l4.3 4.6c.7.7 1.9.3 2-.7l2.4-20.8c.1-.7-.5-1.4-1.2-1.3L29 2.7c-1 .1-1.5 1.3-.8 2l4.7 4.9c.4.5.4 1.2-.1 1.7L16 27.1c-.5.4-.5 1.2-.1 1.7l2 2z"/></svg>