<svg id="Layer_1" xmlns="http://www.w3.org/2000/svg" viewBox="0 0 198 20.3"><style>.st0{fill:#FFFFFF;} .st1{fill:#84400D;}</style><path class="st0" d="M26.3 11.8c0 2.2-1.7 3.6-4.1 3.6-1.2 0-1.9-.3-2.9-.4v-2.8c.6.7 1.8 1.3 2.9 1.3.9 0 1.4-.6 1.4-1.3 0-1.9-3.9-2.1-3.9-5.4 0-2.2 1.5-3.5 3.9-3.5.9 0 1.5.2 2.2.3v2.6c-.4-.7-1.3-1.1-2.2-1.1-.8 0-1.4.5-1.4 1.2.2 1.8 4.1 2.1 4.1 5.5zm6.3 3.4c-.3 0-.8.1-1.4.1-1.5 0-2.8-.9-2.8-3V9.2h-1.1v-2h1.1v-.5c0-.6 0-1.1-.1-1.5h2.4c0 .4-.1 1-.1 1.5v.6h2.1v1.9h-2.1v2.6c0 1.1.5 1.5 1.2 1.5.2 0 .6-.1.7-.2v2.1zm8-.3c-.6 0-1.2.4-2.5.4-2.4 0-4.2-1.8-4.2-4.1s1.7-4.1 3.8-4.1c2.3 0 3.8 2 3.8 3.9 0 .2 0 .5-.1.6h-5.2c.2 1 1 1.8 2.2 1.8.9 0 1.5-.1 2.1-.5v2zm-1.5-4.8c-.1-.6-.6-1.3-1.4-1.3-.8 0-1.3.5-1.5 1.3h2.9zm5.4-2.9c.1.3.2.5.3.9l1.3 3.2 1.2-2.9c.2-.5.3-.9.4-1.2h2.5c-.3.5-.8 1.3-1.1 2l-2.9 6.2h-.4l-3.1-6.5c-.2-.5-.6-1.1-.9-1.7h2.7zm12.9 7.7c-.6 0-1.2.4-2.5.4-2.4 0-4.2-1.8-4.2-4.1s1.7-4.1 3.8-4.1c2.3 0 3.8 2 3.8 3.9 0 .2 0 .5-.1.6H53c.2 1 1 1.8 2.2 1.8.9 0 1.5-.1 2.1-.5v2zm-1.5-4.8c-.1-.6-.6-1.3-1.4-1.3-.8 0-1.3.5-1.5 1.3h2.9zm4.1 5c0-.5.1-1.3.1-1.7V8.6h-.8c.2-.5.4-.9.6-1.3h2.6v1c.4-.7 1.2-1.1 2.2-1.1 1.8 0 2.8 1.3 2.8 3.6v2.7c0 .5 0 1.2.1 1.7H65c.1-.5.1-1.3.1-1.7v-2.7c0-1.1-.5-1.8-1.3-1.8-.9 0-1.3.7-1.3 1.7v2.8c0 .5 0 1.2.1 1.7H60zm9.7 0c0-.5.1-1.9.1-3V6.5c0-1.2 0-2.5-.1-3h3.7c1.2 0 2.3 0 2.9-.1v2.2c-.5-.1-1.7-.1-2.9-.1h-1.2v3h1c1.1 0 2 0 2.5-.1v2.2c-.5-.1-1.4-.1-2.5-.1h-1v1.6c0 1.2 0 2.5.1 3h-2.6zm8.2 0c0-.4.1-1.1.1-1.7V8.6h-.8c.2-.3.4-.9.6-1.3h2.7c0 .4-.1 1.1-.1 1.7v4.4c0 .6 0 1.4.1 1.7h-2.6zm1.2-11.6c.7 0 1.3.6 1.3 1.3 0 .7-.6 1.3-1.3 1.3s-1.3-.6-1.3-1.3c0-.7.6-1.3 1.3-1.3zm8 11.7c-.3 0-.8.1-1.4.1-1.5 0-2.8-.9-2.8-3V9.2h-1.1v-2h1.1v-.5c0-.6 0-1.1-.1-1.5h2.4c0 .4-.1 1-.1 1.5v.6h2.1v1.9h-2.1v2.6c0 1.1.5 1.5 1.2 1.5.2 0 .6-.1.7-.2v2.1zm8.1 0c-.4 0-.8-.1-1.4-.1h-5.6c.2-.4 3.3-5.7 3.5-5.9h-1.9c-.5 0-1 0-1.4.1v-2c.4 0 .8.1 1.4.1h5.3c-.2.3-3.3 5.6-3.5 5.9h2.1c.5 0 1 0 1.4-.1v2zm1.7 4.1c0-.5.1-1.3.1-1.7v-9h-.8c.2-.4.4-.9.6-1.3h2.6v1.1c.6-.8 1.4-1.3 2.5-1.3 2.1 0 3.7 1.8 3.7 4 0 2.3-1.7 4.2-3.9 4.2-1 0-1.9-.3-2.4-1v3.3c0 .5 0 1.2.1 1.7h-2.5zm4.3-6c1.1 0 2-.9 2-2.1 0-1.2-.9-2.1-2-2.1s-2 1-2 2.1c0 1.2.9 2.1 2 2.1zm13.1 1.6c-.4.3-.7.5-1.5.5-.7 0-1.2-.4-1.4-.9-.4.5-1.1.9-1.9.9-1.6 0-2.6-.9-2.6-2.3s1-2.5 2.8-2.5c.7 0 1.4.3 1.6.5v-.5c0-.9-.6-1.6-1.7-1.6-1 0-1.5.3-2 .8V7.6c.6-.1 1.2-.5 2.6-.5 2.3 0 3.3 1.3 3.3 3.6v2.1c0 .6.2.7.4.7s.3 0 .4-.1v1.5zm-4.1-1.1c.6 0 1.1-.4 1.1-.9s-.5-.9-1.1-.9c-.7 0-1.1.4-1.1.9s.4.9 1.1.9zm9.9 1.4c-.3 0-.8.1-1.4.1-1.5 0-2.8-.9-2.8-3V9.2h-1.1v-2h1.1v-.5c0-.6 0-1.1-.1-1.5h2.4c0 .4-.1 1-.1 1.5v.6h2.1v1.9h-2.1v2.6c0 1.1.5 1.5 1.2 1.5.2 0 .6-.1.7-.2v2.1zm2-.1c0-.6.1-1.2.1-1.7V8.6h-.8c.2-.4.4-.9.6-1.3h2.4V9c.3-1.1 1.1-1.9 2.1-1.9.5 0 .5.1.7.1v2.5c-.3-.2-.7-.3-1.1-.3-1 0-1.5 1.1-1.5 2.1v2c0 .6 0 1.2.1 1.7h-2.6zm6.7 0c0-.4.1-1.1.1-1.7V8.6h-.8c.2-.3.4-.9.6-1.3h2.7c0 .4-.1 1.1-.1 1.7v4.4c0 .6 0 1.4.1 1.7h-2.6zM130 3.5c.7 0 1.3.6 1.3 1.3 0 .7-.6 1.3-1.3 1.3s-1.3-.6-1.3-1.3c.1-.7.6-1.3 1.3-1.3zm7.3 9.8c.8 0 1.3-.3 1.7-.7v2.5c-.6.1-.9.2-1.8.2-2.5 0-4.3-1.8-4.3-4 0-2.3 1.8-4.1 4.3-4.1.7 0 1.2.2 1.7.2v2.5c-.4-.4-.8-.6-1.6-.6-1.1 0-2 1-2 2.1-.1.9.8 1.9 2 1.9zm8.7 1.8c-.3-.4-.7-.9-2.8-3.5v1.7c0 .6 0 1.4.1 1.7h-2.5c.1-.4.1-1.2.1-1.7V4h-.9c.2-.4.4-1 .5-1.3h2.7c-.1.4-.1 1.2-.1 1.7v6.3c1.9-2.5 2.1-2.9 2.4-3.4h2.5c-.5.6-.9 1.1-2.8 3.6 2.3 2.9 2.8 3.4 3.7 4.3H146z"/><path class="st1" d="M151.7 12.1c1 0 1.8.7 1.8 1.6 0 .9-.8 1.7-1.8 1.7s-1.8-.7-1.8-1.7c0-.8.8-1.6 1.8-1.6z"/><path class="st0" d="M155.8 15.1c0-.4.1-1.1.1-1.7V8.6h-.8c.2-.3.4-.9.6-1.3h2.7c0 .4-.1 1.1-.1 1.7v4.4c0 .6 0 1.4.1 1.7h-2.6zM157 3.5c.7 0 1.3.6 1.3 1.3 0 .7-.6 1.3-1.3 1.3s-1.3-.6-1.3-1.3c.1-.7.6-1.3 1.3-1.3zm7.2 3.6c2.3 0 4.2 1.8 4.2 4.1 0 2.2-1.9 4.1-4.2 4.1-2.3 0-4.2-1.8-4.2-4.1s1.9-4.1 4.2-4.1zm0 6.1c1.1 0 2-.9 2-2 0-1.2-.9-2.1-2-2.1s-2 .9-2 2.1c0 1.1.9 2 2 2z"/><path class="st1" d="M9.3 1.8L.9 8.3c-1.2 1-1.3 2.9 0 3.9l8.3 6.9c1.6 1.4 4.1.2 4.1-1.9l-8-7L15.1 1c0-2.1-4.2-.5-5.8.8zm179.5 16.7l8.2-6.6c1.2-1 1.2-2.8 0-3.8l-8.3-6.8c-1.6-1.3-4.1-.2-4 1.9l8 6.9-9.7 9.3c0 1.9 4.2.4 5.8-.9zm-15 1c2.3-5.4 4.7-10.8 7-16.2.8-1.8-1.9-3.3-2.6-1.5-2.3 5.4-4.7 10.8-7 16.2-.8 1.7 1.8 3.3 2.6 1.5z"/></svg>