<?xml version="1.0" encoding="utf-8"?>
<!-- Generator: Adobe Illustrator 21.0.2, SVG Export Plug-In . SVG Version: 6.00 Build 0)  -->
<svg version="1.1" id="Layer_1" xmlns="http://www.w3.org/2000/svg" xmlns:xlink="http://www.w3.org/1999/xlink" x="0px" y="0px"
	 viewBox="0 0 297.5 419.9" enable-background="new 0 0 297.5 419.9" xml:space="preserve">
<g>
	<path fill="#E44F26" d="M27.1,386.1L0,82.5h297.5l-27.1,303.6l-121.8,33.8L27.1,386.1L27.1,386.1z"/>
	<path fill="#F1662A" d="M148.7,394l98.4-27.3l23.2-259.4H148.7V394L148.7,394z"/>
	<path fill="#EBEBEB" d="M148.7,219.9H99.4L96,181.8h52.7v-37.2H55.3l0.9,10l9.2,102.6h83.3L148.7,219.9L148.7,219.9z M148.7,316.7
		l-0.2,0l-41.5-11.2l-2.7-29.7H67.1l5.2,58.5l76.3,21.2l0.2,0V316.7z"/>
	<path fill="#010101" d="M27.7,0h18.9v18.7h17.3V0h18.9v56.6H63.9v-19H46.6v19H27.7V0L27.7,0z M107.7,18.8H91.1V0h52.3v18.8h-16.7
		v37.8h-18.9L107.7,18.8L107.7,18.8z M151.6,0h19.7l12.1,19.9L195.6,0h19.7v56.6h-18.8V28.6l-13,20.1h-0.3l-13-20.1v28.1h-18.5
		L151.6,0L151.6,0z M224.8,0h18.9v37.9h26.6v18.7h-45.5V0z"/>
	<path fill="#FFFFFF" d="M148.6,219.9v37.2h45.9l-4.3,48.3l-41.5,11.2v38.7l76.3-21.2l0.6-6.3l8.8-98l0.9-10L148.6,219.9
		L148.6,219.9z M148.6,144.6v37.2h89.9l0.7-8.4l1.7-18.9l0.9-10H148.6z"/>
</g>
</svg>
