<svg viewBox="0 0 297.5 419.9"><path fill="#E44F26" d="M27.1 386.1L0 82.5h297.5l-27.1 303.6-121.8 33.8-121.5-33.8z"/><path fill="#F1662A" d="M148.7 394l98.4-27.3 23.2-259.4H148.7V394z"/><path fill="#EBEBEB" d="M148.7 219.9H99.4L96 181.8h52.7v-37.2H55.3l.9 10 9.2 102.6h83.3v-37.3zm0 96.8h-.2L107 305.5l-2.7-29.7H67.1l5.2 58.5 76.3 21.2h.2v-38.8z"/><path fill="#efefef" d="M27.7 0h18.9v18.7h17.3V0h18.9v56.6H63.9v-19H46.6v19H27.7V0zm80 18.8H91.1V0h52.3v18.8h-16.7v37.8h-18.9l-.1-37.8zM151.6 0h19.7l12.1 19.9L195.6 0h19.7v56.6h-18.8v-28l-13 20.1h-.3l-13-20.1v28.1h-18.5L151.6 0zm73.2 0h18.9v37.9h26.6v18.7h-45.5V0z"/><path fill="#FFF" d="M148.6 219.9v37.2h45.9l-4.3 48.3-41.5 11.2v38.7l76.3-21.2.6-6.3 8.8-98 .9-10-86.7.1zm0-75.3v37.2h89.9l.7-8.4 1.7-18.9.9-10h-93.2z"/></svg>