<svg xmlns="http://www.w3.org/2000/svg" viewBox="0 0 16 16.02" width="16" height="17"><path fill="silver" d="M8.28 11.79l-1.85 1.85a2.44 2.44 0 0 1-3.45 0l-.59-.59a2.44 2.44 0 0 1 0-3.45l2.46-2.46a2.45 2.45 0 0 1 3.45 0l.88.88a.85.85 0 0 0 1.2-1.2l-.88-.88a4.14 4.14 0 0 0-5.82 0L1.2 8.4A4.08 4.08 0 0 0 0 11.32a4 4 0 0 0 1.2 2.9l.59.59a4.11 4.11 0 0 0 5.8 0l1.85-1.85a.84.84 0 0 0 0-1.2.81.81 0 0 0-1.16.03zM14.23 1.2a4.11 4.11 0 0 0-5.8 0L6.87 2.76a.85.85 0 1 0 1.2 1.2L9.63 2.4a2.44 2.44 0 0 1 3.45 0l.59.59a2.44 2.44 0 0 1 0 3.45L11.5 8.58a2.44 2.44 0 0 1-3.45 0l-.88-.88a.86.86 0 0 0-1.22 1.21l.88.88a4.11 4.11 0 0 0 5.8 0l2.14-2.14a4.11 4.11 0 0 0 0-5.8z"/></svg>