<svg viewBox="0 0 442.4 270.9"><g fill="#699F63"><path d="M218.6 270.9c-1.5 0-2.9-.4-4.2-1.1l-13.3-7.9c-2-1.1-1-1.5-.4-1.7 2.7-.9 3.2-1.1 6-2.7.3-.2.7-.1 1 .1l10.2 6.1c.4.2.9.2 1.2 0l39.9-23.1c.4-.2.6-.6.6-1.1v-46.1c0-.5-.2-.9-.6-1.1l-39.9-23c-.4-.2-.9-.2-1.2 0l-39.9 23c-.4.2-.6.7-.6 1.1v46.1c0 .4.2.9.6 1.1l10.9 6.3c5.9 3 9.6-.5 9.6-4v-45.5c0-.6.5-1.2 1.2-1.2h5.1c.6 0 1.2.5 1.2 1.2v45.5c0 7.9-4.3 12.5-11.8 12.5-2.3 0-4.1 0-9.2-2.5l-10.5-6c-2.6-1.5-4.2-4.3-4.2-7.3v-46.1c0-3 1.6-5.8 4.2-7.3l39.9-23.1c2.5-1.4 5.9-1.4 8.4 0l39.9 23.1c2.6 1.5 4.2 4.3 4.2 7.3v46.1c0 3-1.6 5.8-4.2 7.3L222.8 270c-1.2.5-2.7.9-4.2.9z"/><path d="M231 239.2c-17.5 0-21.1-8-21.1-14.8 0-.6.5-1.2 1.2-1.2h5.2c.6 0 1.1.4 1.1 1 .8 5.3 3.1 7.9 13.7 7.9 8.4 0 12-1.9 12-6.4 0-2.6-1-4.5-14.1-5.8-10.9-1.1-17.7-3.5-17.7-12.2 0-8.1 6.8-12.9 18.2-12.9 12.8 0 19.1 4.4 19.9 14 0 .3-.1.6-.3.9-.2.2-.5.4-.8.4H243c-.5 0-1-.4-1.1-.9-1.2-5.5-4.3-7.3-12.5-7.3-9.2 0-10.3 3.2-10.3 5.6 0 2.9 1.3 3.8 13.7 5.4 12.3 1.6 18.1 3.9 18.1 12.5 0 8.8-7.3 13.8-19.9 13.8z"/></g><path fill="#699F63" d="M288.6 190.8c0 4.2-3.5 7.7-7.7 7.7s-7.7-3.4-7.7-7.7c0-4.4 3.6-7.7 7.7-7.7s7.7 3.4 7.7 7.7zm-14.2 0c0 3.6 2.9 6.5 6.4 6.5 3.6 0 6.5-3 6.5-6.5 0-3.6-2.9-6.4-6.5-6.4-3.4 0-6.4 2.8-6.4 6.4zm3.6-4.3h3c1 0 3 0 3 2.3 0 1.6-1 1.9-1.6 2.1 1.2.1 1.3.9 1.4 2 .1.7.2 1.9.4 2.3h-1.8c0-.4-.3-2.6-.3-2.7-.1-.5-.3-.7-.9-.7h-1.5v3.5H278v-8.8zm1.6 3.8h1.3c1.1 0 1.3-.8 1.3-1.2 0-1.2-.8-1.2-1.3-1.2h-1.4v2.4z"/><path fill-rule="evenodd" clip-rule="evenodd" fill="#FFF" d="M94.9 90.6c0-1.8-1-3.5-2.6-4.4L50 61.7c-.7-.4-1.5-.6-2.3-.7h-.4c-.8 0-1.6.3-2.3.7L2.6 86.1C1 87 0 88.7 0 90.6l.1 65.6c0 .9.5 1.8 1.3 2.2.8.5 1.8.5 2.5 0L29.1 144c1.6-.9 2.6-2.6 2.6-4.4v-30.7c0-1.8 1-3.5 2.6-4.4L45 98.3c.8-.5 1.7-.7 2.6-.7.9 0 1.8.2 2.5.7l10.7 6.2c1.6.9 2.6 2.6 2.6 4.4v30.7c0 1.8 1 3.5 2.6 4.4l25 14.4c.8.5 1.8.5 2.6 0 .8-.4 1.3-1.3 1.3-2.2V90.6zM298.7.3c-.8-.4-1.8-.4-2.5 0-.8.5-1.3 1.3-1.3 2.2v65c0 .6-.3 1.2-.9 1.6-.6.3-1.2.3-1.8 0L281.6 63c-1.6-.9-3.5-.9-5.1 0l-42.4 24.5c-1.6.9-2.6 2.6-2.6 4.4v48.9c0 1.8 1 3.5 2.6 4.4l42.4 24.5c1.6.9 3.5.9 5.1 0l42.4-24.5c1.6-.9 2.6-2.6 2.6-4.4V18.9c0-1.9-1-3.6-2.6-4.5L298.7.3zm-3.9 124.4c0 .5-.2.9-.6 1.1l-14.5 8.4c-.4.2-.9.2-1.3 0l-14.5-8.4c-.4-.2-.6-.7-.6-1.1v-16.8c0-.5.2-.9.6-1.1l14.5-8.4c.4-.2.9-.2 1.3 0l14.5 8.4c.4.2.6.7.6 1.1v16.8z"/><g fill-rule="evenodd" clip-rule="evenodd"><path fill="#FFF" d="M439.8 107.5c1.6-.9 2.5-2.6 2.5-4.4V91.2c0-1.8-1-3.5-2.5-4.4l-42.1-24.4c-1.6-.9-3.5-.9-5.1 0l-42.4 24.5c-1.6.9-2.6 2.6-2.6 4.4v48.9c0 1.8 1 3.5 2.6 4.4l42.1 24c1.6.9 3.5.9 5 0l25.5-14.2c.8-.4 1.3-1.3 1.3-2.2 0-.9-.5-1.8-1.3-2.2l-42.6-24.5c-.8-.5-1.3-1.3-1.3-2.2V108c0-.9.5-1.8 1.3-2.2l13.3-7.6c.8-.5 1.8-.5 2.6 0l13.3 7.6c.8.5 1.3 1.3 1.3 2.2v12c0 .9.5 1.8 1.3 2.2.8.5 1.8.5 2.6 0l25.2-14.7z"/><path fill="#699F63" d="M394.5 105.2c.3-.2.7-.2 1 0l8.1 4.7c.3.2.5.5.5.9v9.4c0 .4-.2.7-.5.9l-8.1 4.7c-.3.2-.7.2-1 0l-8.1-4.7c-.3-.2-.5-.5-.5-.9v-9.4c0-.4.2-.7.5-.9l8.1-4.7z"/></g><defs><path id="a" d="M165.8 62.6c-1.6-.9-3.5-.9-5.1 0l-42.1 24.3c-1.6.9-2.5 2.6-2.5 4.4V140c0 1.8 1 3.5 2.5 4.4l42.1 24.3c1.6.9 3.5.9 5.1 0l42.1-24.3c1.6-.9 2.5-2.6 2.5-4.4V91.3c0-1.8-1-3.5-2.5-4.4l-42.1-24.3z"/></defs><linearGradient id="b" gradientUnits="userSpaceOnUse" x1="180.396" y1="80.698" x2="142.331" y2="158.35"><stop offset="0" stop-color="#41873F"/><stop offset=".329" stop-color="#418B3D"/><stop offset=".635" stop-color="#419637"/><stop offset=".932" stop-color="#3FA92D"/><stop offset="1" stop-color="#3FAE2A"/></linearGradient><use xlink:href="#a" overflow="visible" fill-rule="evenodd" clip-rule="evenodd" fill="url(#b)"/><clipPath id="c"><use xlink:href="#a" overflow="visible"/></clipPath><g clip-path="url(#c)"><path fill="none" d="M160.6 62.6l-42.2 24.3c-1.6.9-2.7 2.6-2.7 4.4V140c0 1.2.5 2.3 1.3 3.2L164.4 62c-1.2-.3-2.6-.1-3.8.6zm4.1 106.6c.4-.1.8-.3 1.2-.5l42.2-24.3c1.6-.9 2.6-2.6 2.6-4.4V91.3c0-1.3-.6-2.6-1.5-3.5l-44.5 81.4z"/><linearGradient id="d" gradientUnits="userSpaceOnUse" x1="156.852" y1="121.337" x2="263.659" y2="42.422"><stop offset=".138" stop-color="#41873F"/><stop offset=".403" stop-color="#54A044"/><stop offset=".714" stop-color="#66B848"/><stop offset=".908" stop-color="#6CC04A"/></linearGradient><path fill="url(#d)" d="M208 86.9l-42.3-24.3c-.4-.2-.9-.4-1.3-.5L117 143.2c.4.5.9.9 1.4 1.2l42.3 24.3c1.2.7 2.6.9 3.9.5l44.5-81.4c-.3-.4-.7-.7-1.1-.9z"/></g><g clip-path="url(#c)"><path fill="none" d="M210.7 140V91.3c0-1.8-1.1-3.5-2.7-4.4l-42.3-24.3c-.5-.3-1-.5-1.6-.6l46.3 79.1c.2-.3.3-.7.3-1.1zm-92.3-53.1c-1.6.9-2.7 2.6-2.7 4.4V140c0 1.8 1.2 3.5 2.7 4.4l42.3 24.3c1 .6 2.1.8 3.3.6l-45.3-82.6-.3.2z"/><linearGradient id="e" gradientUnits="userSpaceOnUse" x1="114.556" y1="53.817" x2="211.974" y2="53.817"><stop offset=".092" stop-color="#6CC04A"/><stop offset=".286" stop-color="#66B848"/><stop offset=".597" stop-color="#54A044"/><stop offset=".862" stop-color="#41873F"/></linearGradient><path fill="url(#e)" d="M159.3 53.7l-.6.3h.8"/><linearGradient id="f" gradientUnits="userSpaceOnUse" x1="114.556" y1="115.635" x2="211.974" y2="115.635"><stop offset=".092" stop-color="#6CC04A"/><stop offset=".286" stop-color="#66B848"/><stop offset=".597" stop-color="#54A044"/><stop offset=".862" stop-color="#41873F"/></linearGradient><path fill="url(#f)" d="M208 144.4c1.2-.7 2.1-1.9 2.5-3.2L164.2 62c-1.2-.2-2.5-.1-3.6.6l-42 24.2 45.3 82.6c.6-.1 1.3-.3 1.9-.6l42.2-24.4z"/><linearGradient id="g" gradientUnits="userSpaceOnUse" x1="114.556" y1="143.445" x2="211.974" y2="143.445"><stop offset=".092" stop-color="#6CC04A"/><stop offset=".286" stop-color="#66B848"/><stop offset=".597" stop-color="#54A044"/><stop offset=".862" stop-color="#41873F"/></linearGradient><path fill="url(#g)" d="M212 143.6l-.3-.5v.7"/><linearGradient id="h" gradientUnits="userSpaceOnUse" x1="114.556" y1="156.015" x2="211.974" y2="156.015"><stop offset=".092" stop-color="#6CC04A"/><stop offset=".286" stop-color="#66B848"/><stop offset=".597" stop-color="#54A044"/><stop offset=".862" stop-color="#41873F"/></linearGradient><path fill="url(#h)" d="M208 144.4l-42.2 24.3c-.6.3-1.2.5-1.9.6l.8 1.5 46.8-27.1v-.6l-1.2-2c-.1 1.4-1 2.6-2.3 3.3z"/><linearGradient id="i" gradientUnits="userSpaceOnUse" x1="226.166" y1="78.395" x2="166.085" y2="200.96"><stop offset="0" stop-color="#41873F"/><stop offset=".329" stop-color="#418B3D"/><stop offset=".635" stop-color="#419637"/><stop offset=".932" stop-color="#3FA92D"/><stop offset="1" stop-color="#3FAE2A"/></linearGradient><path fill="url(#i)" d="M208 144.4l-42.2 24.3c-.6.3-1.2.5-1.9.6l.8 1.5 46.8-27.1v-.6l-1.2-2c-.1 1.4-1 2.6-2.3 3.3z"/></g></svg>