<?xml version="1.0" encoding="utf-8"?>
<!-- Generator: Adobe Illustrator 21.0.2, SVG Export Plug-In . SVG Version: 6.00 Build 0)  -->
<svg version="1.1" id="Layer_1" xmlns="http://www.w3.org/2000/svg" xmlns:xlink="http://www.w3.org/1999/xlink" x="0px" y="0px"
	 viewBox="0 0 396.8 107.8" enable-background="new 0 0 396.8 107.8" xml:space="preserve">
<path fill="#673AB8" d="M47.7,0l46.7,26.9v53.9l-46.7,26.9L1,80.8V26.9L47.7,0z"/>
<ellipse transform="matrix(0.7934 -0.6088 0.6088 0.7934 -22.9573 40.1594)" fill="none" stroke="#FFFFFF" stroke-width="3" cx="47.7" cy="53.9" rx="41.3" ry="15.8"/>
<ellipse transform="matrix(0.6088 -0.7934 0.7934 0.6088 -24.1056 58.9082)" fill="none" stroke="#FFFFFF" stroke-width="3" cx="47.7" cy="53.9" rx="15.8" ry="41.3"/>
<circle fill="#FFFFFF" cx="47.7" cy="53.9" r="7.2"/>
<g enable-background="new    ">
	<path fill="#FFFFFF" d="M106,80.8V28.1h19.9c3.5,0,6.2,0.2,8,0.5c2.6,0.4,4.8,1.3,6.5,2.5c1.8,1.2,3.2,2.9,4.2,5.1
		c1.1,2.2,1.6,4.6,1.6,7.2c0,4.5-1.4,8.3-4.3,11.4c-2.9,3.1-8,4.7-15.5,4.7H113v21.4H106z M113,53.2h13.6c4.5,0,7.7-0.8,9.6-2.5
		c1.9-1.7,2.8-4,2.8-7.1c0-2.2-0.6-4.1-1.7-5.7c-1.1-1.6-2.6-2.6-4.4-3.1c-1.2-0.3-3.3-0.5-6.5-0.5H113V53.2z"/>
	<path fill="#FFFFFF" d="M155.2,80.8V28.1h23.4c4.7,0,8.3,0.5,10.7,1.4c2.4,0.9,4.4,2.6,5.9,5c1.5,2.4,2.2,5,2.2,8
		c0,3.7-1.2,6.9-3.6,9.5s-6.2,4.2-11.2,4.9c1.8,0.9,3.3,1.8,4.2,2.6c2,1.9,4,4.2,5.8,7l9.2,14.4H193l-7-11c-2-3.2-3.7-5.6-5-7.3
		c-1.3-1.7-2.5-2.9-3.5-3.5c-1-0.7-2.1-1.1-3.2-1.4c-0.8-0.2-2.1-0.3-3.9-0.3h-8.1v23.4H155.2z M162.2,51.4h15c3.2,0,5.7-0.3,7.5-1
		c1.8-0.7,3.2-1.7,4.1-3.2c0.9-1.5,1.4-3,1.4-4.7c0-2.5-0.9-4.5-2.7-6.2c-1.8-1.6-4.7-2.4-8.6-2.4h-16.7V51.4z"/>
	<path fill="#FFFFFF" d="M208.5,80.8V28.1h38.1v6.2h-31.2v16.2h29.2v6.2h-29.2v18h32.4v6.2H208.5z"/>
	<path fill="#FFFFFF" d="M251.7,80.8L272,28.1h7.5l21.6,52.7h-8l-6.2-16h-22.1l-5.8,16H251.7z M266.9,59.2h17.9l-5.5-14.6
		c-1.7-4.4-2.9-8.1-3.7-10.9c-0.7,3.4-1.6,6.7-2.8,10.1L266.9,59.2z"/>
	<path fill="#FFFFFF" d="M344.3,62.3l7,1.8c-1.5,5.7-4.1,10.1-7.9,13.1c-3.8,3-8.4,4.5-13.9,4.5c-5.7,0-10.3-1.2-13.9-3.5
		s-6.3-5.7-8.1-10.1c-1.9-4.4-2.8-9.1-2.8-14.1c0-5.5,1-10.3,3.1-14.4c2.1-4.1,5.1-7.2,9-9.3c3.9-2.1,8.1-3.2,12.8-3.2
		c5.3,0,9.7,1.3,13.3,4c3.6,2.7,6.1,6.5,7.5,11.3l-6.9,1.6c-1.2-3.8-3-6.6-5.3-8.4c-2.3-1.8-5.3-2.6-8.8-2.6c-4.1,0-7.4,1-10.2,2.9
		c-2.7,1.9-4.6,4.6-5.7,7.8s-1.7,6.7-1.7,10.1c0,4.5,0.7,8.4,2,11.7c1.3,3.3,3.3,5.8,6.1,7.5s5.7,2.5,9,2.5c3.9,0,7.2-1.1,9.9-3.4
		C341.5,70.1,343.3,66.8,344.3,62.3z"/>
	<path fill="#FFFFFF" d="M373.3,80.8V34.3h-17.4v-6.2h41.8v6.2h-17.4v46.5H373.3z"/>
</g>
</svg>
