<svg viewBox="0 0 561.8 499.8"><g transform="translate(12 17)"><circle fill="#00D8FF" cx="268.9" cy="232.4" r="50.2"/><path fill="none" stroke="#00D8FF" stroke-width="24" d="M268.9 130.4c67.4 0 129.9 9.7 177.1 25.9 56.8 19.6 91.8 49.2 91.8 76.1 0 28-37 59.5-98.1 79.7-46.2 15.3-106.9 23.3-170.8 23.3-65.6 0-127.6-7.5-174.3-23.4C35.6 291.8 0 259.9 0 232.4c0-26.6 33.4-56.1 89.4-75.6 47.4-16.5 111.5-26.4 179.5-26.4z"/><path fill="none" stroke="#00D8FF" stroke-width="24" d="M180.1 181.7C213.8 123.4 253.4 74 291 41.2 336.4 1.7 379.5-13.7 402.8-.3c24.2 14 33 61.8 20.1 124.8-9.8 47.6-33.2 104.2-65.2 159.6-32.7 56.8-70.3 106.8-107.4 139.3-47 41.1-92.4 55.9-116.2 42.2-23.1-13.3-31.9-56.9-20.8-115.2 9.4-49.3 32.8-109.8 66.8-168.7z"/><path fill="none" stroke="#00D8FF" stroke-width="24" d="M180.2 284.3C146.4 226 123.5 167 113.9 118 102.4 59 110.5 13.9 133.8.4c24.2-14 70.1 2.2 118.1 44.9 36.4 32.3 73.7 80.8 105.7 136.2 32.8 56.7 57.5 114.2 67 162.6 12.1 61.2 2.3 108-21.5 121.7-23.1 13.3-65.2-.8-110.2-39.5-38-32.6-78.6-83.2-112.7-142z"/></g></svg>