<svg xmlns="http://www.w3.org/2000/svg" viewBox="0 0 455 455">
  <path d="M315 157.5C315 70.515 244.485 0 157.5 0S0 70.515 0 157.5c0 32.92 10.106 63.476 27.376 88.75L6.69 308.31l62.062-20.686C94.024 304.894 124.58 315 157.5 315c86.985 0 157.5-70.515 157.5-157.5z"/>
  <path d="M455 297.5c0-70.533-46.37-130.224-110.284-150.284.184 3.414.284 6.842.284 10.284 0 25.3-4.962 49.857-14.747 72.992-9.445 22.33-22.96 42.38-40.17 59.59s-37.26 30.725-59.59 40.17C207.356 340.04 182.798 345 157.5 345c-3.443 0-6.87-.114-10.288-.3C167.267 408.624 226.962 455 297.5 455c32.92 0 63.476-10.106 88.75-27.376l62.062 20.687-20.688-62.06C444.894 360.977 455 330.42 455 297.5z"/>
</svg>