<svg xmlns="http://www.w3.org/2000/svg" xmlns:xlink="http://www.w3.org/1999/xlink" viewBox="0 0 93.6 83.3"><defs><radialGradient id="e" cx="31.94" cy="54.57" r="32.48" gradientUnits="userSpaceOnUse"><stop offset="0" stop-color="#e7ecef"/><stop offset="1" stop-color="#bfc8cd"/></radialGradient><linearGradient id="a" x1="31.09" y1="20.75" x2="47.67" y2="84.28" gradientUnits="userSpaceOnUse"><stop offset="0" stop-color="#fff"/><stop offset="1" stop-color="#b7c6ce"/></linearGradient><linearGradient id="f" x1="23.54" y1="1.21" x2="34.98" y2="42.82" gradientUnits="userSpaceOnUse"><stop offset="0" stop-color="#fffbd4"/><stop offset="1"/></linearGradient><linearGradient id="g" x1="18.16" y1="-4.36" x2="39.45" y2="57.37" gradientUnits="userSpaceOnUse"><stop offset="0" stop-color="#fff"/><stop offset="1"/></linearGradient><linearGradient id="h" x1="22.93" y1="50.42" x2="22.93" y2="13.89" xlink:href="#a"/><linearGradient id="i" x1="29.29" y1="50.42" x2="29.29" y2="13.89" xlink:href="#a"/><linearGradient id="j" x1="34.79" y1="50.42" x2="34.79" y2="13.89" xlink:href="#a"/><linearGradient id="b" x1="62.64" y1="77.76" x2="62.64" y2="2.11" gradientUnits="userSpaceOnUse"><stop offset="0" stop-color="#656565"/><stop offset=".62" stop-color="#1b1b1b"/><stop offset=".63" stop-color="#545454"/><stop offset=".98" stop-color="#3e3e3e"/></linearGradient><linearGradient id="c" x1="62.64" y1="77.76" x2="62.64" y2="2.11" gradientUnits="userSpaceOnUse"><stop offset="0" stop-color="#0e0e0e"/><stop offset=".5"/><stop offset=".52" stop-color="#010101"/><stop offset=".73" stop-color="#0b0b0b"/><stop offset="1" stop-color="#0e0e0e"/></linearGradient><linearGradient id="d" x1="62.64" y1="2.11" x2="62.64" y2="77.76" gradientUnits="userSpaceOnUse"><stop offset="0" stop-color="#fff" stop-opacity=".77"/><stop offset=".2" stop-color="#fff" stop-opacity=".65"/><stop offset=".34" stop-color="#fff" stop-opacity=".65"/><stop offset=".35" stop-color="#fff" stop-opacity=".65"/><stop offset=".37" stop-color="#fff" stop-opacity=".62"/><stop offset=".4" stop-color="#fff" stop-opacity=".53"/><stop offset=".43" stop-color="#fff" stop-opacity=".39"/><stop offset=".47" stop-color="#fff" stop-opacity=".2"/><stop offset=".51" stop-color="#fff" stop-opacity="0"/><stop offset=".59" stop-color="#7e7e7e" stop-opacity=".09"/><stop offset="1" stop-color="#1b1b1b" stop-opacity=".16"/></linearGradient><linearGradient id="k" x1="23.32" y1="79.62" x2="23.32" y2="9.44" xlink:href="#b"/><linearGradient id="l" x1="23.32" y1="79.62" x2="23.32" y2="9.44" xlink:href="#c"/><linearGradient id="m" x1="23.32" y1="9.44" x2="23.32" y2="79.62" xlink:href="#d"/><symbol id="n" viewBox="0 0 64 64"><path d="M32 63.5A31.5 31.5 0 1 1 63.5 32 31.54 31.54 0 0 1 32 63.5z" fill="url(#e)"/><path d="M32 1A31 31 0 1 1 1 32 31 31 0 0 1 32 1m0-1a32 32 0 1 0 32 32A32 32 0 0 0 32 0z" fill="#8b98a0"/><path d="M53.4 9.6A31 31 0 0 1 9.6 53.4 31 31 0 1 0 53.4 9.6z" fill="url(#a)" style="mix-blend-mode:multiply" opacity=".8"/><path d="M24.36 37.7c10.87-9.36 24.94-18.09 37.07-11.5a30 30 0 1 0-57.2 17.13c4.77 1.2 12.16 1.23 20.13-5.63z" fill="url(#f)" style="mix-blend-mode:screen"/><path d="M4 34a30 30 0 0 1 50.18-22.18 30 30 0 1 0-42.36 42.36A29.89 29.89 0 0 1 4 34z" fill="url(#g)" style="mix-blend-mode:screen"/><g style="mix-blend-mode:multiply" opacity=".8"><path d="M27.22 44.72a4.29 4.29 0 1 1-4.29-4.29 4.28 4.28 0 0 1 4.29 4.29z" style="mix-blend-mode:multiply" opacity=".8" fill="url(#h)"/><path d="M39.66 48.76H34a15.42 15.42 0 0 0-15.1-15.15V28a21.07 21.07 0 0 1 20.76 20.76z" style="mix-blend-mode:multiply" opacity=".8" fill="url(#i)"/><path d="M50.64 48.76H45a26.43 26.43 0 0 0-26.07-26.14V17a32.07 32.07 0 0 1 31.71 31.76z" style="mix-blend-mode:multiply" opacity=".8" fill="url(#j)"/></g><path d="M26.22 43.72a4.29 4.29 0 1 1-4.29-4.29 4.28 4.28 0 0 1 4.29 4.29zm12.44 4.04H33a15.42 15.42 0 0 0-15.1-15.15V27a21.07 21.07 0 0 1 20.76 20.76z"/><path d="M49.64 47.76H44a26.43 26.43 0 0 0-26.07-26.14V16a32.07 32.07 0 0 1 31.71 31.76z"/></symbol></defs><g style="isolation:isolate"><path fill="url(#b)" d="M38.14 70.09l8.1-4.48 25.64 12.15-5.16-27.53 20.43-20.37-28.55-3.01L45.59 2.11l-3.57 7.33"/><path style="mix-blend-mode:screen" opacity=".51" fill="url(#c)" d="M38.14 70.09l8.1-4.48 25.64 12.15-5.16-27.53 20.43-20.37-28.55-3.01L45.59 2.11l-3.57 7.33"/><path style="mix-blend-mode:screen" opacity=".7" fill="url(#d)" d="M38.14 70.09l8.1-4.48 25.64 12.15-5.16-27.53 20.43-20.37-28.55-3.01L45.59 2.11l-3.57 7.33"/><path d="M72.35 77.97l-19-9c-1.79-.85-5.12-3.38-7.1-3.36-2.33 0-5.77 3.37-8 4.37-.32.14 0 0 .62-.42s1.49-.82 2.23-1.23c1.19-.65 3.55-2.65 4.92-2.72s3.88 1.68 5.28 2.34l20.05 9.51a4.81 4.81 0 0 1 0-.73l-2.61-13.92-1.8-9.62a10.66 10.66 0 0 1-.49-2.6c.09-.8.08-.55 0-.32.51-1.13 2.36-2.35 3.22-3.22l6.71-6.69 10-9.92a5.71 5.71 0 0 0 0-.73l-21.88-2.3c-1.52-.16-5 .11-6.2-.81-1.63-1.24-2.92-5.56-3.85-7.33L48.05 7.1c-.43-.82-1.28-3.5-2.1-4s0-.79-1 .75-1.36 3.52-2.43 5-.05-.78.39-1.69c.55-1.13 1.33-4 2.33-4.79s.12-.5.88.22c2 2 3.37 6.41 4.67 8.89L57 23.29c1 1.88 1.14 3 2.91 3.63 3.23 1.13 7.76.82 11.15 1.17l13.19 1.48a11.61 11.61 0 0 1 2.78.29c.81.32.54-.73 0 .17-1.5 2.7-5.23 5.22-7.41 7.39l-9.47 9.55c-3.55 3.54-3.17 3.11-2.24 8q2.22 11.87 4.45 23.75v-.73q-1.25-6.69-2.51-13.38l-1.87-10c-.21-1.12-.43-2.23-.63-3.35s.13-1.3-.21-.6c.66-1.37 2.76-2.75 3.83-3.82l7.35-7.33 9.61-9.59a5.72 5.72 0 0 0 0-.73l-17.38-1.83c-3.85-.41-10.72.66-12.68-3.05L47.43 4.45a10.16 10.16 0 0 0-1.34-2.54c-.72-.67.08-.91-.82-.35-1.52.95-2.75 5.66-3.57 7.34a2.88 2.88 0 0 0 0 .73c1.87.91 2.23-5.21 3.66-5.9 1-.49-.46-.4.58.15.71.38 1.54 2.93 1.91 3.63l5.25 10c1.46 2.78 2.71 6.41 4.67 8.88 1 1.2.42.85 1.88 1.29 2.69.81 6.11.64 8.89.94l11.49 1.21c1 .11 6.48 1.29 6.31 0 .09.72-3.82 3.81-4.33 4.31l-8.67 8.65c-1.86 1.86-6.36 4.82-7 7.35a4.78 4.78 0 0 0 .24 1.65c.5 3.31 1.24 6.59 1.85 9.88l2.08 11.11c.2 1.07.36 2.15.6 3.2.42 1.87.27.77.13.75-2.45-.28-5.75-2.73-8-3.77L51.31 67.3c-1.36-.65-3.79-2.41-5.28-2.34-2.29.11-6.05 3.34-8.11 4.48a2.71 2.71 0 0 0 0 .73c1 1.75 6.43-3.66 8.18-3.71s5.14 2.32 6.85 3.13l19.36 9.18c-.06-.07.14-.71.04-.8z" fill="#fff" style="mix-blend-mode:screen" opacity=".49"/><path fill="none" stroke="#717171" stroke-miterlimit="1" stroke-width=".588" d="M38.14 70.09l8.1-4.48 25.64 12.15-5.16-27.53 20.43-20.37-28.55-3.01L45.59 2.11l-3.57 7.33"/><g opacity=".42" fill="#202020"><path d="M38.43 7.7c.43.3 1.5.77 1.39.46l-1.71-1zm3.98.21a12.72 12.72 0 0 0-3.85-2.33c1.6 1.08.85.79 2.77 2 .11.31-.75.08-1.39-.27.42.3-.55.13.52.79 1.51.4 1.74.09.77-.83a5.52 5.52 0 0 1 1.18.64zm8.15 9.65l.14-.24a.39.39 0 0 0-.14.24zm8.52 13.05c-.14 0-.28.15-.36.31.17-.06.32-.14.36-.31zm2.8 2.69a1.76 1.76 0 0 0-.2-.16c.05.19.12.3.2.16zM50.56 17.56l-.38.62c.59-.28.34-.39.38-.62zM39.47 2.97a1.46 1.46 0 0 0 .38.41 1.2 1.2 0 0 1-.11-.26zm6.78 9.88l-.06-.1-.76.29zM43.79 8.8a13.39 13.39 0 0 0 2.17-.93 2.85 2.85 0 0 1-1.13.33c-.29.15-.58.34-1.04.6zm2.29-3.75l.15.22c-.05-.06-.08-.14-.15-.22zm1.44 10.92c-.22.12-.41.24-.51.32a4.41 4.41 0 0 0 .51-.32zm-1.61 58.87l-.11-.28a2.07 2.07 0 0 0 .11.28zm-7.99-5.13v-.12l-.44-.84zm28.17-33.8c-.04.16-.03.13 0 0zm1.73 3.38a6.14 6.14 0 0 1 1.21 1.25 2.77 2.77 0 0 0 1.35 1.29c-.25-.22-.65-.75-1.13-1.26a9.91 9.91 0 0 0-1.43-1.28zM39.72 2.97a.35.35 0 0 1 .07-.18c-.09.08-.11.18-.07.18zm30.66 38.86l.15.08zm-1.56-6.65l.84-.65zm-.92-2.51v.23c.03-.15.02-.21 0-.23zm5.69.62c-.15.11-.51.31-.08.13l.31-.17c-.39.18-.57.27-.23.04zm2.05.21l.64-.27-.25.06zM50.93 75.7c.12-.47.3-1 .48-1.45-.46 1.11-1.16 1.24-.48 1.45z"/><path d="M40.32 3.43a1.76 1.76 0 0 1-.6-.43.52.52 0 0 0 0 .16 3.11 3.11 0 0 0 .6.27zm48.09 21.05v.59a.83.83 0 0 0 0-.59zm-10.4 49.44l.16.25c.08-.01.08-.08-.16-.25zm11.36-47.59a2.54 2.54 0 0 0-.58.67 2.37 2.37 0 0 0 .3-.1zm-37.95 47.9z"/><path d="M46.63 76.39l1.34-3.17c.26-.23.1.15-.13.74a13.51 13.51 0 0 0-.77 1.9c.67-.33 1.85-2 2.13-1.8a2.91 2.91 0 0 1-.4.87c1.19-1.38 1.34.54 2.79-1.22a3.75 3.75 0 0 1-.17.53 30.35 30.35 0 0 1 1.23-2.79c.26.08 1.06-1 .53.31-.13-.11-.4.41-.66.79l.53-.44c-.66 2-.66.48-1.32 1.87.41-.18.91-.61 1.41-.86s1-.34 1.13.06c-.58 2-1.59 0-1.5 2.05a3.73 3.73 0 0 1-.5-1.1c-.92 3.12-.27-.38-1.32 2.93.07.2.48.4.72.45a2.34 2.34 0 0 0 .78 0 1.64 1.64 0 0 1 1.6.51c.61-1 .36-1.68.95-2.66 1.09-.61 1.1.81 1.24 2.2s.29 2.69 1.17 1.6c.52-1.26.71-4 1.55-2.11q-.14 1.21-.33 2.39c1.38.91.61-3.38 2-1-.12.95-.91.41-.69.82 1 2.51.51-1.21 1.1-.93l.44 2.47a3.35 3.35 0 0 0 1.93-.26 3.58 3.58 0 0 1 1.73-.4 6.46 6.46 0 0 0 .8 2.45 1.3 1.3 0 0 1 .47 0c.33-.5.88-.42 1.49-.18s1.3.64 1.92.93l-.33-1.81a2.06 2.06 0 0 1 .5 1c.61.43-.4-1-.49-1.69.17-.14.65.79.72 1.3a3 3 0 0 1 .57-1.89c.35-.35.87-.32 1.51.1v.32c.38.1.25-.43.17-.82s-.13-.67.37-.34v.14a2.85 2.85 0 0 0 .54 0c.24-.45.38-1 .61-1.47s.57-.72 1.51-.46c-.74-.74-.45-.87-.2-1s.42-.38-.93-1.47a14.51 14.51 0 0 1 1.85.64 5.15 5.15 0 0 0 1.89.33c.35-.08-1.86-1.82-2.13-2.38l1.88 1.31q-.85-.87-1.8-1.78l2.51 1.44-.34-.6a5.08 5.08 0 0 1-1.64-.83c-.26-.37-.11-.5.28-.45a3.05 3.05 0 0 1 2.3.34q-1.13-1.78-2.22-3.34a7.2 7.2 0 0 1 1.8 1.62c-2.37-2.38 2.14.87 0-1.32a8.3 8.3 0 0 1-1.67-.88c1.14 0 .89-1.38.2-2.51l1.42.65a9.36 9.36 0 0 0-.74-3 18.55 18.55 0 0 1-1-3.11c-.47.72-2.78.36-3.09-.12l2-.17c-1.3-.35-.65.53-2.29-.17.11-.61 2.17-.5 2.9-.06l-.85-.87a9.64 9.64 0 0 1 1.69.14c-.65-.17-.23-.59.07-1.07s.47-1-.63-1.12l.56-.15-.07-.37-.05-.19a2.65 2.65 0 0 0-.14-.34 4.12 4.12 0 0 0-.35-.57 3.78 3.78 0 0 1-.64-1.12c-1.66.29-1.36-.13-2.75-.16a4.71 4.71 0 0 1 .41-.61 2.67 2.67 0 0 1 .25-.31l.28-.14c.35-.18.63-.29.54-.39-.88-.15-1.46 0-2.5-.14 1.56 0 1.37-.28 2.53-.08l-.07-.05a10.14 10.14 0 0 0-1.72-1.05 11.16 11.16 0 0 1-1.51-.33c-.23-.16.28-.12.89 0l.56.16h.17-.06c-.54-.32-.27-.45.22-.42a7.14 7.14 0 0 1 1.78.42c.86.29 1.23.6.26-.38l.11.11a7.21 7.21 0 0 1-.5-.68 3.43 3.43 0 0 1-.22-.37l-.09-.5c.57-.19.59 1 1.54 1.44-.92-2.71 1.64-1.11 1.21-3.09 2.08 1.13 3.05 0 3.77-1.08s1.21-2.3 3.37-2.41l-1.14-.37c-.69-.79 1-.17 1.58-.36-.9-.28-1.37 0-1.74-.44a9.37 9.37 0 0 1 3.68-3.57c1.75-1.13 4-2.35 6.19-3.72a3.4 3.4 0 0 0 .64-1.16c0-.37-1.73-.4-3.09-.45s-2.27-.15-.77-.66l2.32.12c-1.54-.64-1.46-1.35-1.49-2.07a2.4 2.4 0 0 0-.71-2c.28 0 .66 0 .67.09.45-.23.38-.51.16-.7a1 1 0 0 0-.85-.23c.07-.23.53-.19.81-.4s-.23-.38-.39-.52-.24-.14 0-.28.24 0 .31 0c-.39-.05-.34-.84-1-.32 0-.29-.19-.46-.42-.6s-.46-.25-.28-.59c-.65.22-.67 0-.71-.22s-.12-.36-1.08.19c1.89-1.13 1.11-1.79-.17-1.3.73-.36.53-.7 1.55-1.24-.2-.33-.82-.32-2 .62 1.24-1.29.51-1.21-.23-1s-1.39.33.7-1.48c-.68.06-1.35.13-2 .23-2.53.53-4.47.92-6.14 1.18a3 3 0 0 1 2.49-1.25c.64 0 1.28-.05 2.68-1.33a33.73 33.73 0 0 0-4.57 1.59c-1.31.5-2.31.82-3 .42-.23-.4 1.08-1.07 1.61-1.48a6.93 6.93 0 0 1-3.24.14 4.52 4.52 0 0 0-3 .44 1.82 1.82 0 0 1 .65-.67c-.38 0-.67-.47-1.06.73l.45-.29a5.22 5.22 0 0 1-1.39 2.52 8.27 8.27 0 0 0-1.34 1.89c1.49-3.39-1.15-1 .7-5.3a2.35 2.35 0 0 0-.81 1.56c-.25-.27-.29-.75.24-1.64a2.23 2.23 0 0 0-1.19 1.12c-.2.39-.51.68-.8.63a14.82 14.82 0 0 1 .37-1.5c-.46 1.12-.93 2.24-1.45 1.68.07-.35.05-.83.22-.8-.5 0-1 .76-1.5 1.32a2.38 2.38 0 0 1-.73.62c-.17.1-.35.05-.48-.24.66-2.53-.06-.86.43-3.06q-.18.32-.39.63-.11.54-.19 1.07c-.17 0-.62.74-.91.92-.11.07-.19 0-.18-.16q.3-.43.57-.87l-.87.39a7.64 7.64 0 0 0 0 .85c-.85 1.07-1.16 2.73-1.46 2.07.24-.21-.46-.08.07-1.35-.51.59-1.12 1.19-1.24.92a1.62 1.62 0 0 1 0-.21c.43-.73 1.61-2.25 1.9-2.73-.63.81-.81.75-1 .7s-.4-.1-1.17.58a14.08 14.08 0 0 0 1.37-1.45q-.57.55-1.15 1.08a4.57 4.57 0 0 1 1.13-1.41c0-.59-2 2.25-1.4.82a5.12 5.12 0 0 1 .5-.3.92.92 0 0 0 0-.17c0-.35-.31-.4-.6-.51s-.56-.27-.38-.68c1.89-1.24.67.09 2.22-1.05-.16-.08-.38 0-.72-.12s-.78-.25-1.16-.37c-.76-.25-1.42-.55-1.44-1.16l-.13.3c-2.89 1.35 1-1.45-.57-1.24a5.4 5.4 0 0 0 1.31-.53c.11-.9-1.4-1-2.81-1.52l.79-.26c.44-.73-.17-1.22-.06-1.81-.79.26-.8 0-1.77.65 3.44-3.46-3.51-1.31-.68-4.26.08.13.81 0 .75-.12l-1.18-.63c-1.19.72-.68.52-1.52 1.23-.79.26-1.5.28-1.63 0 1 0 2-1 2.55-1.59-.36.23-.81.38-1.18.6 1.91-1.66-2.51 1.21-1.41-.26l.66-.3c-.47-.09-1.45.12-1.41-.26 1.36-.86.81-.07 2-.67-.29-.35-3.1.63-1.87-.47.48 0 .62.2 1.1.16 1.46-1.27 1-1.09 1.13-1.52l.4-1.07-.36.41c-4 1.45-1.21-.65-4 0 2.64-.56 1.38-.59 3-1.39a3.35 3.35 0 0 1 1.21-1.09c-1.46.37.75-1.06-1.39-.51.51-.29-.13-.36 1.21-1-.62-.2-.85.57-1.52.88-1.84.26.6-1.95-.74-2.25l-8.08.13a2.44 2.44 0 0 0 .47.65c.63 1.29 2.33 2.3 2.86 3.47a3.76 3.76 0 0 1-1.82-1.14c-1 0-1 .4-.56 1.07a4.28 4.28 0 0 0-1.5-.58c0 .37 1.82 1.14.85 1.16a21.92 21.92 0 0 1-2-1.33c.31.59 1.12 1.43 1.41 2a5.39 5.39 0 0 1-1.82-1.32 3.34 3.34 0 0 0 1.69 2.32h.65c0 .19-1.28-.53-1.49-.77-1-.91.75-.27 1.29 0l.21.43c3.22 1.23 0-1.3.46-1.75l2.14 1.31-1.6-1.45c.64.17 1.93.7 2.14 1.12 1.29.16-.63-.73.76-.45a.76.76 0 0 1 .38.2l-.49-.7c.44.3 1.61.71 1.18.78 1.62 0-1.16-1.9.66-1.32l.11.12c-.29-1.23-1.46-.93-2.93-2.29h1.92a1.78 1.78 0 0 1 .35-.08L43.08 4.1l1.67-.76c0 .13 0 .38-.7.68 1.29-.23.67-.43 1.83-.78-1.24 1.23 1.35.89-1.18 2.35 1.32-.48.72-.93 1.83-.9-2.71 1.6.77.31-.29 1.39-1.5.63-.95-.17-2 .92 2.55-1-.11 1.09.54 1.19 1.94-1 1.2.34 2.16.59-.67.3-.48 1.66-.89 2.57l-.33.15c2-.92 1.93-.16 2.55 0a5.8 5.8 0 0 1-2.31.82l.21.38a2 2 0 0 1 1.42-.16l-1.51.67c.35.47 2.26.13 1.63 1.3 1.38-.68 3.51-2.52 4.79-2.3a8.42 8.42 0 0 1-2.36 1.07c.13 0 .72-.11.47.18l-1.38.37c-.39.59 1.12-.39 1.13-.09-1.05.55-.65.57-1.51 1-.13 0 .32-.44-.14-.31a2.9 2.9 0 0 1-1.23 1.55c.58-.34 1.41-.74 1.65-.62.35.47-1.17.84-1.55 1.42.79-.26.21.47 1.78-.35.07.15-.65.57-1 .85.83-.1.85 1.14 2.36 0l.07-.13h.09c2 .05.06 2.27 1.19 2.79l-.53.27c.87.2 1 1 2.28.74.08.15-.77.86-1.43 1.13.6.19 1.21-.08.65.95-1.12.08-.74.56-.88-.05-.18.76-1 1.28.78 1.14-1.49.42-1.36 1.51-.78 1.66q.31-.57.65-1.09a1.48 1.48 0 0 1 .53 1.1q-.87.48-1.76.94c-.5 1.43.54 1.77 1.45 1.85 1.31-.12 2.24-.33 1.41 1.72 1.14-.71 0-1.31 1.28-2.21a4.93 4.93 0 0 1-.29 1.93 4.11 4.11 0 0 0-.25 1.54 1.13 1.13 0 0 0 .07.24c.61.82 2.23-1.92 2.77-1a5.21 5.21 0 0 1 1.82-2.72c.45.32-.42 3-1.07 3.33-.18 0-.17-.25-.06-.47a1.08 1.08 0 0 0-.78 1.09l.38-.59c0 .63.65 1 .58 1.66a1 1 0 0 1-.21.56c.8-.5.73-1 .5-1.32a2.39 2.39 0 0 0-.09-.23l.09.24c.74.81 1.59.07 2.5.81-.11-.41-.08-1.24.09-1.22 1.39 1 1-1.26 1.84-1.48.29 1.12-.42 2.56.39 1.73a3.4 3.4 0 0 1-.34 2.45c.8-1.3 1.12 1 1.47 1.32l-.4.53c.24-.32.41-.29.58-.27v-1.44c.18.27.35.29.28.88.31-.91.09-2.37.63-3.6 0 .19.13.24.22.24s.11-.06.16-.08.18.07 0 1c-.14-.34-.19.13-.26.72a6.64 6.64 0 0 1-.25 1.44c.05-.22.1-.21.1 0s-.07.39-.09.49c-.2 1.68.44-2.1.77-2a9.1 9.1 0 0 0-.44 1.76 11.57 11.57 0 0 1 .87-2.51c-.06.83.49-.57.61-.46v-.39c.47-1 .59-.87 1-1.16-.36.8-.47.52-.55.88.54-.88.5-.4.35.15s-.39 1.16.13.58c-.31.69-1.19 1.89-1.42 2.35.52-.64.36-.29.12.08s-.52.77 0 .25a13.34 13.34 0 0 1 2-2.28 14.35 14.35 0 0 0-1.21.89q.84-1 1.83-1.9c-.2 0-1 .8-1 .56a7.28 7.28 0 0 0 1.42-1.86c-.56 1-.23.74.24.39s1-.78.65-.09l-2.91 3.26c-.52.74-.08.33.58-.14s1.49-1 1.25-.59l.49-.57c1.55-1.25.55-.14 1.37-.63-.59.45-1 .78-1.33 1.06l-1.24 1c1-.77.13.09 3.17-2q-.85.69-1.78 1.38c-.26.29 1-.43 2.33-1.16s2.84-1.49 2.84-1.28c-2.06 1.08-3.14 1.81-4.72 2.57.09 0-.14.22 1.1-.48-.52.32.16 0 .81-.3s1.25-.53.42 0a24.73 24.73 0 0 1 3-1.36c-.38.2-1 .49-1 .49 1-.49 1.66-.63 3.66-1.73-2.76 1.57-2.36 1.54-1.71 1.48s1.45-.14-1.55 1.11a20.51 20.51 0 0 1 2.88-.57c-.8.27-1.29.46-1.08.36-.21.1-.29.14-.27.15-.21.19 7.31-2.43 4.52-1.19-4.26 1.54-2 .5-3.64 1.14-4.17 1.41-3.95 1.37-3.36 1.26s1.53-.29-.85.48l-.42.1c-1.4.46-.71.3.17.12s2-.37 1.56-.16l-1.11.28c3.6-.78 4.27-.52 4.84-.31a35.53 35.53 0 0 0-4 .68c.24.07 4.41-.89 4.79-.65a54.69 54.69 0 0 1-5.78 1.22l.07-.19c-1.88.36-1.89.4-1.55.4s1 0 .67.06l-1.51.18c.26.17 3.92-.15 3.19.33l1.11-.11c2.52.09-.32.25-.46.36s.1.07.57.12l-3.45.09a13.18 13.18 0 0 1 1.62.38 2.45 2.45 0 0 1 1.21.65c-2.05-.43-3-.79-4.29-.94-.13.1-.1.35 1.34.56-.24-.09-.94-.2-.41-.22 2.33.3 3.15.78 2.71 1.17-2.77-.48-3.29-.37-3.66-.23s-.65.38-2.57-.22c.74.46.35.6-.13.56s-1.05-.21-1.08 0c2.9 2.16 0 .16 2.75 2.58 0 .31-.09.34-.27.18-.71-.33-1.49-.58-2.23-.87-.92-.59-.35-.79-1-1.35-.7.31-1.31-.89-2.33-1.25 1 .86 1.15 1.51.51 1.44l1.6.79c.67 2.09-2.78-1.57-2.13.51l-.59-1c.18.31-.57 1-1 1.83a2.31 2.31 0 0 0 .41 2.86c-.46-.14-1.49-.52-1.43-1a2.27 2.27 0 0 0-.61.61 8.4 8.4 0 0 0 .15 2.35 3.64 3.64 0 0 1 0 1.93 1.08 1.08 0 0 1-.62.82l-.77-.33c.14.42 1.41.92.49 1.18-.34-.08-.8-.29-.89-.14.23.26 1.32 1.14.72 1.51l-.92-.5a1.36 1.36 0 0 0-.43 1 4.81 4.81 0 0 0 2 1.89 7.28 7.28 0 0 1 2 1.5 4.86 4.86 0 0 0-1.6.49 3.22 3.22 0 0 0-.56.38c-.17.13-.32.21-.45.31a3.56 3.56 0 0 0-1 1.08l-.37.05c0 .72.62 1.2 1.43 1.64l1.28.65a5 5 0 0 1 1 .24c-1.4.31-1.68.45-1.79.62s-.06.39-.9.25a16.23 16.23 0 0 1 2.52.83c-.57-.11 2.07 1.08-.59.06-2.59-.91-1.89-.61-1.94-.54l3.55 1.76c-2.54-1-2-.71-1.42 0s1.31 1.48-1.14-.41c1 .84 1 .95 2 1.89l-2.07-1.81c-.49-.28-.76-.53-.21.18L59.5 61.7l3.08 3.29c1.6 1.73 3.24 3.59 3.34 3.82l-3.24-3.52c.06.2-.62-.46-.95-.76s-.29-.22 1.28 1.93l-1.63-2.14-.14-.14c-.57-.63-1.57-2 2 3-1.38-1.91-1.5-2-1.18-1.48s1 1.72 1.43 2.46l-1.75-2.68c2.11 3.37 2.66 4.27 2.87 5-.3-.38-1.35-2.12-.84-1.41-1.06-1.47 1.26 2.35.09.81l-.82-1.57c-.36-.31.17.57 1 2.35.32.89-1-.93-2.05-3.11.64 1.33 1.32 3 .83 2.29a16.28 16.28 0 0 1-.65-1.53c-.59-.91-.41-.29-.34.22s.09.91-.47-.27c-.27-.74-.43-1.12-.53-1.35a1.76 1.76 0 0 1 .67.6c-.94-2.15-1.19-2.57-2.33-5.46a22.94 22.94 0 0 1 1.22 3.77c0 .26 0 .31-.16 0l-.24-.7-.05-.22c-.1-.22-.07 0 0 .27a4.2 4.2 0 0 0-.3-.66c-.44-1.62-.35-.93-.44-1 .43 2.07.2 1.66.68 3.43-.05-.16 0-.23 0-.28a.5.5 0 0 0 0-.19v.18a.57.57 0 0 1 .27 0c.21 1 .26 1.87-.16.63.22 1.31.38 2.62.44 3.22a38.56 38.56 0 0 1-1.51-6.33 2.78 2.78 0 0 1-.4 1 15.48 15.48 0 0 0-.78 2.65c-.22.35 0-1 0-1.56.12-.29.19-.21.28-.67-.34.74-.68 0-1.37 2.15-.08-1.15.76-1.89.21-1.76l.27-.62c.1-.93 0-1.06-.23-.86a8.13 8.13 0 0 0-1.63 1c-1.2.86-2.36 1.59-2.24-.86a1.76 1.76 0 0 1-.13.8c-.4-1.43-2.56-1.66-4-2a4 4 0 0 1-3-1.28 3.45 3.45 0 0 1-.51-.33c-.84-.42-.8.9-1 2.06l-.46-1.69a19.87 19.87 0 0 0-.33 2.24c-.07.22-.16.34-.27.37-.39.19-1.08-.67-1.82-1.13s-1.51-.55-1.53.92l.74 1c-.31 0-.5.35-.7.5s-.44.15-.75-.48c.07.21.5 1.18.05.69l-.47-.82-.08 1.9c-1-.23-1.71-3.35-2.79-3a6.79 6.79 0 0 0 .74 3.47c.17 0 .66.31 1.13 1.13l-.1.62c1.29 2.48 2.42 5.13 4.18 6.38l-.25-1.81.84 1.08-.44.34c.89 1 .52-.12.34-.9a4.68 4.68 0 0 0 1 1.17l-.73-2.65c.6.92.8 2 1.47 2.36-.34-1.23-1.44-2-1.39-3 .89 1 1.31 1.91 1.1.78a3.05 3.05 0 0 1 .57 1.39 1.4 1.4 0 0 1 .17-.88c.1-.25.13-.55-.22-1.2.43.66.46.52.56.51s.21.11.7 1.35a6.81 6.81 0 0 1-.48-2.23c.42 1.71.51 1.58.6 1.63s.21.21.52 1.84a5.53 5.53 0 0 1-.19-2 3.49 3.49 0 0 0 .23-.78c0-.11 0-.26.07-.45v.57a8.71 8.71 0 0 1 .14 1.87 13.91 13.91 0 0 1 .74-4.45 14.1 14.1 0 0 1-.34 2.61c-.14.69-.24 1.38-.37 2.52a32.17 32.17 0 0 1 .72-3.52 2.38 2.38 0 0 1 0 .3 11.4 11.4 0 0 1-.39 2.41c.74-2.9.18-.47.8-2.17-.27 1.48-.86 2.64-.42 1.86-.14.43-.34.87-.49 1.22zm18.2 3l-.35-.06zm1.17.18a.77.77 0 0 0-.46-.07c-.3-.75-.53-1.53-.42-1.48a6.58 6.58 0 0 0 .88 1.56zm-6.43-15.6c0-.28.09.14.21.58a.55.55 0 0 0 0 .21l.05.25z"/><path d="M60.08 66.63v.13l.15.49-.11-.64zm-9.35-49.35a1.17 1.17 0 0 1 .19-.16zm27.52 58.14l-.44-.31.33.34.11-.03M52.76 8.71a1.62 1.62 0 0 0 .34-.28 2.17 2.17 0 0 0-.34.28zm-1-2.74l.34-.64a2.17 2.17 0 0 0-.34.64zm-.29-2.32c-.27.11-.48.21-.66.3zm20.87 18.14a.38.38 0 0 0 .17-.06c.47-.28.19-.18-.17.06zm-11.56 2.75c.25-.28.49-.56.66-.73-.05-.14-.12-.18-.66.73zm27.63-.12a.19.19 0 0 1 0 .05zm-26.66-.55c0-.33-.09-.27-.3-.06.03.16.07.29.3.06zM38.47 4.71l-.11.07.24.13zm.13.2l.13.19s.03-.13-.13-.19zm.4.6l-.27-.41c-.05.08-.14.15.27.41zm1.45-3.08l-.54-.3a5.13 5.13 0 0 0 .54.3z"/><path d="M40.68 1.56c-.22.13-1.41-.09-1.19.34l.43.24c-.77-.53 1.6.05.76-.58zm3.29 3.72l.09-.89c-.52.42-1.21 1-1.51.75-1.3 1.74 1.2-.84 1.42.14zm.28 2.48c-.45-.21-.84.44-1.17.6.6-.05.76-.07 1.17-.6zm7.71 14.75l-1.38.68c.34.17.53-.27 1.38-.68zm8.22-1.41q.35-.36.71-.7l-1.21.72zm-7.16 8.96l-.31.03.97.09-.66-.12m19.39 4.59L76 33.13a36.87 36.87 0 0 0-3.59 1.52zm1.45 2.32c-1.48.14-2.45.25-1.17.29.27-.14 1.47-.29 1.17-.29zM61.37 62.22l-.72-.43.61.41z"/></g><path fill="url(#k)" d="M42.02 9.44L33.1 27.78 4.63 32.86l20.83 18.87-4.58 27.89 17.26-9.53"/><path style="mix-blend-mode:screen" opacity=".51" fill="url(#l)" d="M42.02 9.44L33.1 27.78 4.63 32.86l20.83 18.87-4.58 27.89 17.26-9.53"/><path style="mix-blend-mode:screen" opacity=".7" fill="url(#m)" d="M42.02 9.44L33.1 27.78 4.63 32.86l20.83 18.87-4.58 27.89 17.26-9.53"/><path d="M20.41 80.64q1.31-8 2.63-16l1.62-9.88c.12-.74.63-2 .42-2.79-.75-2.73-6.06-5.95-8.15-7.84L9.1 37.04c-1-.93-4.28-2.92-4.72-4.28-.14-.43-.26.33.55.05a17.91 17.91 0 0 1 2.69-.48l11.08-2 10.43-1.86c1.4-.25 3-.2 4-1.14 1.79-1.83 2.86-5.88 4-8.17 1.37-2.81 2.51-6.08 4.23-8.7 1.28-2 .7-.55-.12 1.14l-5.19 10.67c-.71 1.46-1.56 4.57-2.87 5.49-1.62 1.13-5.83 1-7.73 1.38l-20 3.57a4.85 4.85 0 0 0 0 .73l10.15 9.19 7.25 6.56c.5.45 2.92 2.34 3 2.43s-.44 2.82-.58 3.68l-1.51 9.21-2.31 14.07c0 .1.06.69 0 .73l9.59-5.3c1.87-1 6.39-3 7.31-4-2 2.2-6.83 3.77-9.43 5.21l-8.4 4.64c-.11.06.1.67 0 .73l17.89-9.88a2.71 2.71 0 0 0 0-.73c-.65-1.18-2.46.55-3.44 1.09l-8.16 4.51c-1.38.76-3.64 2.67-5.22 2.88-.86.12.28 1.22 0 .11-.2-.71.41-2.48.53-3.19l2.74-17.41c.26-1.6 1.45-4.68 1-6.34s-3.45-3.49-4.78-4.69l-13.27-12-1.74-1.58c-1-.87-.16-.19-.61.12 1-.69 3.73-.66 4.86-.87l17.58-3.14c1.23-.22 4.17-.19 5.23-.93.83-.58 1.31-2.29 1.78-3.23l7.44-15.3a2.88 2.88 0 0 0 0-.73c-1.36-.66-5.37 9.42-6.12 11-.84 1.72-1.67 4.9-3 6.25-.81.79-.64.58-2 1-8.8 2.42-18.32 3.27-27.32 4.87a4.86 4.86 0 0 0 0 .73l10.14 9.19 7.57 6.86c.48.43 4 3.76 3.51 2.5.42 1.15-.66 4-.86 5.22l-1.65 10-2.16 13.12c-.08.13-.01.39-.05.62z" fill="#fff" style="mix-blend-mode:screen" opacity=".49"/><path fill="none" stroke="#717171" stroke-miterlimit="1" stroke-width=".588" d="M42.02 9.44L33.1 27.78 4.63 32.86l20.83 18.87-4.58 27.89 17.26-9.53"/><g opacity=".42" fill="#202020"><path d="M40.07 73.59c-.19-.48-.79-1.49-.84-1.2l.85 1.8zm-2.82-2.62a16 16 0 0 0 1.88 4.08c-.74-1.77-.31-1.1-1.21-3.2 0-.29.59.4.91 1.06-.19-.48.46.25-.06-.89-1-1.23-1.24-1.14-.9.12a7 7 0 0 1-.62-1.17zm-17.1 5.87l.21.15a.41.41 0 0 0-.21-.15zm6.22-6.77c0 .09.22.16.4.19a.64.64 0 0 0-.4-.19zm2.47-1.5a1.1 1.1 0 0 0-.15.09c.18-.01.29-.04.15-.09zm-8.69 8.27l-.56-.4c.3.53.37.35.56.4zm17.24-.5a1.71 1.71 0 0 0-.11-.54 1.15 1.15 0 0 1 0 .26zm-13.76-3.25h.08l-.33-.74zm3.11-2.12a16.93 16.93 0 0 0 1 2.13 3.51 3.51 0 0 1-.4-1.1c-.14-.24-.34-.57-.6-1.03zm6.61-.21v-.25c-.01.07-.02.15 0 .25zm-12.24 3.3c-.13-.22-.25-.4-.32-.51a5.58 5.58 0 0 0 .32.51zm11.9-64.19l.27.13c-.15-.09-.25-.15-.27-.13zm9.4-.23l.06.09.84.43zM31.53 65.53c.14.13.11.07 0 0zm-9.78-26.56h-2.62a17.25 17.25 0 0 0-2.76 0c.48 0 1.52 0 2.57.05s2.13-.05 2.81-.05zm15.44 37.22a.22.22 0 0 1-.13.09c.1.01.13-.02.13-.09zM16.37 38.97h-.21zM31.89 57.1a5 5 0 0 0-.76.06 2.84 2.84 0 0 0 .76-.06zm-3.4 5.87l.25-.11c-.17.04-.23.11-.25.11zm1.31-10.49c.11-.13.32-.21.08-.31l-.19.08c.23.01.35.06.11.23zm-1.38-3.96l-.25.22.14.07zm1.07-29.55c.46.14.95.33 1.43.53-1.1-.53-1.28-1.11-1.43-.53zm7.44 56.54a2.18 2.18 0 0 1 .27.68.42.42 0 0 0 0-.13 4 4 0 0 0-.27-.55zM16.32 55.1l.27-.13c-.18.07-.27.11-.27.13zm-5.87-30.25v-.21c-.1-.02-.13.04 0 .21zm5.8 30.02c.61-.25.94-.41 1.15-.53l-.45.18zm14.69-35.38z"/><path d="M28.8 14.73c-.25.41 1.85 1.15 3 1.8.31.79-1.58-.47-2.69-.79.37.58 2.08 1.72 1.88 1.92a3.69 3.69 0 0 1-.86-.41c1.42 1.11-.42 1.05 1.38 2.42a4.71 4.71 0 0 1-.52-.19c1 .42 2.05.91 2.77 1.27-.06.21 1.08 1-.26.41.1-.1-.42-.37-.8-.62l.47.48c-2-.73-.51-.59-1.9-1.27.41.69 1.74 1.91 1.06 2-1.86-.83-.27-1-2.1-1.4l.93-.13c-3.07-1 .34-.19-2.91-1.36-.42.18-.27.47-.12.76.09.12.12.34.18.36s0 .07-.12 0c1 .59 1.48.79 2.44 1.4.77.74-.38.18-1.39-.47s-1.92-1.32-.86-.41a24.81 24.81 0 0 1 2.16 1.94c.18.21.14.28-.26 0q-.87-.85-1.76-1.66c-.24 0 2.46 2.52 1.16 1.64-.64-.76-.48-.77-.7-.94-1.41-1.27.92 1.09.84 1.26l-1.47-1.64c.06.16.23.48.41.86a2.42 2.42 0 0 1 .28 1.39 16.48 16.48 0 0 0-1-1.72c.09.33 0 .43-.14.37a3.11 3.11 0 0 1-1-1.65q.17.86.27 1.74a3.13 3.13 0 0 1-.23-1.11c-.49-.59.18 1.1.12 1.82-.19.16-.45-.95-.41-1.49-.39 1.59-1.29 3.5-2.3 1.76v-.54c-.66-.61 0 3.66-.75 2.13v-.32a1.16 1.16 0 0 0-.5-.1 4.59 4.59 0 0 0-.69.08c-.46.08-.9.21-1.34.28a3.73 3.73 0 0 1-3.17-1.08c.46 1.21-.11 1-.65 1s-1 0 0 1.6c-1-.71-1.61-1.21-2.2-1.64a7.47 7.47 0 0 0-2.51-1.14c-.59-.06 1 2.06.87 2.46l-1.53-1.61q.43.91.94 1.8-1.13-.92-2.3-1.84l-.08.5a4.91 4.91 0 0 1 1.61 1.1c0 .42-.69.22-1.57-.17a13.52 13.52 0 0 1-2.43-1.38 8 8 0 0 0-.19 1.62 2.89 2.89 0 0 1-1-1.31c1.07 1.73-2.35-1.56-1.38 0a12.73 12.73 0 0 1 1.6 1.21 6.15 6.15 0 0 0-1.29-.47c-.6-.12-.64.25-.4.71l-1.37-1c-.6.4.06 1.7-.33 2.31a7.48 7.48 0 0 1 2.73 1.7l-1.82-1c1 .77.82.26 1.95 1.26a7.29 7.29 0 0 1-2.57-1.54l.42.64c-.51-.29-.74-.51-1.37-.92.5.38 0 .25-.37.21s-.63 0 .17.58l-.47-.25c-.27.72.07 1.29-.14 1.85 1.07.54.71.62 1.41 1.13-.65.13-1.61.24-1.81.72.17.42.58.3.91.55a1.36 1.36 0 0 0-.54 0c-.19.07-.27.24-.62 0a2.41 2.41 0 0 0 1 1.72 2.06 2.06 0 0 1 .87 0c.22.15-.3.25-.8.18h-.11c.87.52.3.91-.55 1.35s-1.83.91-.22 1.29H1.6q.84.38 1.83.74c-.24.33-1.29-.2-2.31 0 1.41.4 1.4.69 1.17 1s-.64.59.53.87c-1.89.22-2.63.48-2.81.77a10.63 10.63 0 0 0 2.14 1.42c.72.47 1.1.92.27 1.51l1.27-.29c1.6 0-.41.45-.48.72 1-.23.86-.51 1.76-.49a5.79 5.79 0 0 1 3.25 3.51 25.74 25.74 0 0 0 2.13 4.78c.41.56 1.62-.2 2.6-.8s1.72-1 1.36.37q-.85.57-1.74 1.1a5.2 5.2 0 0 1 1.21.17 1.88 1.88 0 0 0 .38.07 1.51 1.51 0 0 1 .29.08 2.33 2.33 0 0 1 .85.66 3.1 3.1 0 0 0 .8.71.86.86 0 0 0 .52.13l.5-.31c-.35.3-.77.73-.78.7-.48.53-.49.56-.23.37s.78-.57 1.25-.94a16.74 16.74 0 0 1-1.28 1.08c-.33.28.05 0 .4-.21s.65-.36 0 .06c-.2.13-.41.26-.51.32a1.06 1.06 0 0 1 .29-.15c.11 0 .06.06 1.11-.57-.31.25-.1.19.1.16s.39 0-.07.2c1.44-.54.37 0 .78-.09.13 0 .47-.12 1.21-.36-2.92 1-2.37.9-1 .73-.86.17-.91.27-2.09.48a10.36 10.36 0 0 0 2-.21 7.33 7.33 0 0 0-1.08.25c-.09.06.61.07.89.13s.18.16-1.47.14a5.31 5.31 0 0 1 1 .25 1.14 1.14 0 0 1 .76.55 9.42 9.42 0 0 1 1 1.7c-2.66-.47-.09-1.13-2.9-1.55.95 1.11 3.15 2 2.35 2.84-.41.18-1.14-.33-1.58-.48.95 1.11-.54 1.76.78 2.83a2.09 2.09 0 0 1-.7-.3c.06.18-.46.31.76.5l-.3-.21c1.8 0 3.57 1.25 4.5 1.43-3.43-.85-1 .67-5.33-.49a4.06 4.06 0 0 0 1.58.48c-.26.12-.74.09-1.64-.22.56.69 1.89.7 1.78 1.22-.59-.1-.8-.24-1.48-.41 1.1.46 2.2.91 1.63 1.28-.35-.09-.82-.11-.79-.24.05.8 2.84 1.81 1.59 2.47-2.51-.67-.89.15-3.11-.17l.58.56h1.13c-.1.39 1.45 1 .67 1.23l-.86-.44.3.81.91-.28c1.07.59 2.8.42 2.1.84-.21-.14-.09.39-1.43.39.67.31 1.38.64.78.84-.72 0-2.43-.46-2.91-.49 1.82.5.36 1 2.29 1.58a11.45 11.45 0 0 0-1.85-.36l1.48.41a3.43 3.43 0 0 1-1.67-.09c-.37.51 2.83.29 1.52.74a3.78 3.78 0 0 1-.55-.23c-.74.56.74 1.43-.1 1.92-2.25-.19-.46-.62-2.37-.72.26.94 2.37 2.25 1.71 3l.27-.12c3.12.63-1.66.37-.25 1a6.82 6.82 0 0 0-1.37-.34c-.51.43.28 1.08 1 1.93l4.43 3.13a5.17 5.17 0 0 1 .1-.56l.3.77c.66.47 1-.07 1.51.07-.3-.77 0-.75-.73-1.73 3.26 3.52.72-3.25 3.49-.35-.1.07.09.77.18.72l.4-1.08a7.8 7.8 0 0 0-1.19-1.54c-.3-.77-.39-1.45-.21-1.55a5.4 5.4 0 0 0 1.6 2.54c-.23-.36-.41-.8-.63-1.17 1.59 1.94-1.28-2.48.06-1.32l.32.65c0-.44-.25-1.38.07-1.32.87 1.35.15.77.77 1.94.26-.25-.86-3 .19-1.75.09.46-.1.57 0 1 1.21 1.48 1 1 1.39 1.18l.93.46-.38-.37c-1.64-3.87.42-1.1-.39-3.79.75 2.55.64 1.36 1.48 3a4.09 4.09 0 0 1 1 1.23c-.46-1.42 1 .79.28-1.28.3.5.29-.1.95 1.22.1-.58-.57-.85-.9-1.51-.47-2 2.33 1.48 1.71-1.31.06-1.33-.78-3.12-.69-4.29a4.69 4.69 0 0 1 .87 2c.72.58.88.32.85-.43a5.41 5.41 0 0 0 .86 1.35c.16-.26-.87-2-.15-1.37.26.6.7 1.55.9 2.19 0-.62-.24-1.73-.21-2.35a6.69 6.69 0 0 1 .8 2.09 3.61 3.61 0 0 0-.3-2.73l-.48-.39c.08-.13.73 1.18.79 1.49.34 1.26-.67-.27-1-.78v-.44c-1.87-2.89-.55.93-1.05 1l-1-2.28.58 2a5.78 5.78 0 0 1-1.12-2.14c-.89-.92.17.92-.75-.15a1 1 0 0 1-.2-.39l.07.81c-.2-.49-.9-1.52-.55-1.3-1.21-1 .08 2.1-1 .55v-.16c-.3 1.13.82 1.64 1.32 3.82l-2.54-3.76.82 1.64c-.11 0-.32-.06-.64-.71.33 1.25.43.67.85 1.8-1.16-1.27-.6 1.22-2.09-1.29.55 1.29.86.75.95 1.81-1.63-2.69-.18.71-1.19-.37-.68-1.47 0-.89-1-2 1.13 2.5-.92-.18-.94.43 1 1.92-.15 1.12-.26 2-.33-.66-1.44-.57-2.24-1l-.16-.33c1 2 .34 1.85.24 2.43a7.23 7.23 0 0 1-.93-2.26l-.3.17a2.35 2.35 0 0 1 .28 1.36l-.72-1.48c-.36.3.13 2.14-.91 1.46.71 1.36 2.48 3.52 2.43 4.72a10.65 10.65 0 0 1-1.15-2.32c0 .12.17.7-.1.44l-.46-1.34c-.53-.41.44 1.09.19 1.08-.57-1-.55-.66-1-1.5 0-.13.4.34.25-.11a3.28 3.28 0 0 1-1.43-1.28c.34.58.77 1.4.69 1.62-.36.3-.83-1.17-1.35-1.58.3.77-.37.17.48 1.72-.12.06-.54-.65-.82-1 .17.8-.86.73.29 2.25l.11.08v.09c.06.7-.17.87-.51.87l2.64 1.86c.38-.45 1.39-.81 1-1.37l.59.1c-.59-.56-.23-1.07-1.43-1.6a3.48 3.48 0 0 1 1.81 0c-.38-.42-1-.56 0-.91 1 .52.92 0 .69.48.58-.37 1.53-.31 0-1.06 1.47.41 1.94 0 1.53-.32l-1.12.14c-.18-.28 0-.46.15-.66l2 .44c2.55-.53-3.81-2.33.32-2.37-1.34-.47-1.05.34-2.63-.14.34-.38 3.23-.36 3.26-.49 1.19-.4-2.79-1-1.94-1.5-.71 0-2.6-.27-3.19-.83.33-.38 3 0 3.55.32 0 .11-.19.12-.43.08a1.62 1.62 0 0 0 1.29.37l-.69-.17c.75-.09.77-.69 1.9-.36a1.44 1.44 0 0 0-1.53-.15c1.11-.38.17-.84.95-1.29a3.11 3.11 0 0 1-1.22-.12c1-.68-1.27-.58-1.49-1.19 1.12-.14 2.54.53 1.73-.17a4.26 4.26 0 0 1 2.43.46c-1.27-.73 1-.81 1.34-1.06l.52.36c-.31-.22-.28-.35-.25-.48l-1.43-.08a1 1 0 0 1 .88-.15c-.89-.31-2.36-.26-3.56-.79.75-.09-.66-.77 1.22-.53-.74.56 1.89.23 2.09.84-.2-.14-.17-.27.1-.39a1 1 0 0 1 .48.15c1.77-.36-2.06-.64-1.91-1.28 1 .26 2 .18 1.81 0-.06.26-1.77-.16-2.54-.54.89-.29-.53-.56-.4-.76l-.43.19c-1-.26-.87-.45-1.15-.79.82.11.52.36.9.31-1.79-.63 2-.42.86-1.08.75-.09 2 .3 2.49.2-1.28-.73 1.53-.31.49-1a3.93 3.93 0 0 1-2.41-.6l.85 1-2-.9c-.06.26.8.7.53.82a3.41 3.41 0 0 0-2-.44c2.18 0-1.12-.92.38-1.11l3.49.59c1.66-.37-1.61-1.41-.6-2.09l-.65.16c-1.37-.36-.12-.47-.61-1a5.86 5.86 0 0 0 2.4-.1c-.88-.06.25-1-2.12-1.21q.83-.23 1.67-.52c.66-.87-1.79-1-2.55-1.4-.22-.09-.33-.2-.25-.37 1.33.08 2.11-.42 3.16.07 0-.3.11-.6-.71-.49.68-.3-1.68-.53-.63-1-.51 0-1.66.19-1.59-.12a2.81 2.81 0 0 1 .53-.12c-.54.12-.74-.27-1.91.27 1.26-.59 1.47-1.08 1.45-1.5-.37-.6-1.46-.8 0-2a13.87 13.87 0 0 1-1.42-.85c-.17-.09-.31-.17-.42-.25.33-.18.5-.34.48-.19.28-1.23-3.18 1.71-2.77.42 1.15-1.54 1.15-.36 1.51-1 1.49-1.28 1.13-1.42.6-1.45s-1.22.08-.68-1l.29-.05c.4-1.42-1.75.41-2-.19a4.12 4.12 0 0 0 .4-.43 5.24 5.24 0 0 1-3.37 1.26c1.15-1 .72-.43 1.69-1.65-.33 0-1.62 1.89-2.27 1.89a10.58 10.58 0 0 1 1.91-2.61l.24.1c1.37-1.64-.26-.13-.11-.5l.7-.63c-.41 0-2.29 1.51-2.54 1.06l-.56.45c-1.1.58-.89.33-.58.06s.68-.57-.2-.2l2.07-1.32a10.8 10.8 0 0 1-3.34.67c2-.6 3.06-.81 4.13-1.25-.07-.09-.44-.17-1.68.29.28-.06.9-.28.58-.07-1.94.75-3.17.88-3.45.57 2.48-.85 2.65-1.09 2.68-1.28s-.14-.38 2-.87c-1.09.1-1.1-.08-.8-.23s.91-.31.81-.4h-.06c-5 .27-.23-.07-5.55.06-.47-.11-.44-.16-.09-.17q1.44-.17 3-.23c1.6 0 1.32.1 2.57.12.33-.08 2.36 0 3.87.09-2.05-.09-3-.17-2.23-.16q-1.34-.08-2.63-.1c-1.65-.18-.49-.16.75-.08s2.52.2.84 0l2 .23a11.37 11.37 0 0 1-1.13-.19l-4.31-.78c.75.1 2.57.4 3.08.51a23.16 23.16 0 0 0-2.51-.69c-1.3-.35-2.38-.74-.63-.38l1.84.46c-.55-.15-3.53-.93-1.73-.51l2 .5c-.64-.17-3.4-1-2.36-.72l2.19.62c.79.18.43.06-.51-.24-1.61-.51-5.06-1.64-5.58-2l8.17 2.53.72.25a13.82 13.82 0 0 0-1.8-.8 25.62 25.62 0 0 1-3.16-1.59 28.49 28.49 0 0 0 3.42 1.3 4.49 4.49 0 0 1 1.65.65c-.66-.37-2.71-1.61-3-1.83.74.41-2-1.5 1 .43h-.09c1.81 1.13 2.24 1.4 2.35 1.44l-3.55-2.59c2.8 1.84 2.37 1.49 2.15 1s-.42-1 1.3.82a12.54 12.54 0 0 1-1-1.43l1.22 1.51c.46.36.59.55.52.15l.64 1.12c0 .1-2.44-4.54-2.19-4.69q.61 1.18 1.18 2.36c.13 0 .46.45.63.69s.21.21.11-.94c.07.36.2 1.09.19 1.19a.25.25 0 0 1 .05.08.19.19 0 0 0 .14.13.86.86 0 0 0 .51.12c.3-.07.46-.56.08-2.26.41 2.23.87.07 1.13-1l.23 1.66c0-2.17-.1-2.75.31-3.42.16.19.34 1.3.11.91.56.79 0-1.61.68-.83v1.08c.45.05.28-.5.37-1.78.2-.72 1.12.23 1.66 1.67-.16-.91-.23-2.15.23-1.79a2.21 2.21 0 0 1 .22 1.08c.87.56 1-.39 1.19-.84s.25-.46.74 0a3.51 3.51 0 0 0 .55.84c-.29.13-.55.25-.77.32-.38 0-.63 0-.62-.07.57 1.46 1.49 1.58 1.71 3.7 0-.27.09-.6.13-.95 0-1.47-.12-3 .57-2.76a4.48 4.48 0 0 1 .33.4v.18c.2 0 .25-.15.24-.42.3.1.51.17.7.08.63.84 1 .24 1.25 0l.1-.09c-.93-1.18-.5-1.28-1.53-2 .07 0 .08.12 0 .23l-.1.11a.28.28 0 0 0 0 .19l-.06-.12a6.22 6.22 0 0 1-.62.45c-.21-.79-.38-1.4.41-.86-.19-.36-.38-.73-.57-1-.25-.48-.48-.89-.62-1.14 1.48 1.38 2.88 1.67 3.94 2.58.09-.79.52-1.36.45-2.2a5.06 5.06 0 0 0-1.53-2.56c-.23-.47.88.26 1.35.45.19.33.06.48.4.84-.41-1 .51-1.78-1.38-2.95 1.17-.13 1.62 1.32 1.73.28l.55.43a2.85 2.85 0 0 0 .95-.16c.15-.1.17-.25.1-.45a6.4 6.4 0 0 0-1.08-1.47c-.91-1.07-1.7-2.1.66-1.77a2.13 2.13 0 0 1-.78-.18c2.54-.64-.17-4 3.42-4.06.78-.15-.47-.81-1.31-1.54l1.67.7-1.66-1.36c-1.07-1.3 4.53.85 2.31-1.21l-1.15-.43c.35-.19-.21-1.22 1-.56-.19-.13-1.1-.65-.47-.48l.86.41-1.12-1.41c.88-.25 3.34 1.73 3.9 1a8.16 8.16 0 0 0-2.7-2.22c-.1.1-.68 0-1.54-.36l-.31-.49c-2.49-1.27-5-2.73-7-2.92l1.31 1.21-1.29-.44.11-.43c-1.25-.34-.31.3.31.79a5.81 5.81 0 0 0-1.44-.46l2.18 1.62c-1-.42-1.85-1.15-2.54-1.11 1 .75 2.3.87 2.86 1.58-1.25-.33-2.15-.85-1.3-.12a3.82 3.82 0 0 1-1.28-.78c.66.61 0 .77 1.31 1.54-1.52-.45 0 1-2.38-.22.53.35 1.67 1.32 1.66 1.58-2.66-1.77-.55.71-3.56-.87 2.42 1.53.63 1.59 1.8 2.79-.19-.13-.57-.38-.42-.36-.35.18-1.16-.11-1.74-.16 2.1 1.07 2.36 1.75 3.55 2.62-2.21-.64-2.38-1.42-4.39-2.26 1.72.82 1.41 1.44 2.9 2a10.21 10.21 0 0 1-2.55-.78c2.62 1.33.33.47 1.84 1.48-1.49-.25-2.53-1.1-1.93-.29a3.65 3.65 0 0 1-1.54-1.11zm.5 9.17l.07-.11a1 1 0 0 0-.12.11zm-.49.11a.29.29 0 0 0 .25 0c.3.54.56 1.1.48 1.08a8.4 8.4 0 0 0-.73-1.12zm7.68 9.22c-.07.31-.31.1-.51-.15a1.27 1.27 0 0 0 .23-.36l-.09-.17a5.57 5.57 0 0 1 .36.69z"/><path d="M35.66 31.41v-.13l-.31-.22.22.42zM20.4 76.97a1.45 1.45 0 0 1 .15.19zm-8.85-53.16l.35.37-.16-.35-.19-.02m16.23 55.75a2 2 0 0 0 .27.34 2.69 2.69 0 0 0-.27-.34zm2.16-.76l.57.37a2.25 2.25 0 0 0-.57-.37zm1.92-.11c-.12-.27-.23-.47-.32-.65zM17.33 61.26a.14.14 0 0 0-.06-.08c-.3-.21-.19-.08.06.08zm2.56 8.71a5.82 5.82 0 0 1-.74-.39c-.15.16-.21.27.74.39zm-3.64-14.85z"/><path d="M19.25 69.25c-.36.09-.3.22-.09.37.09-.1.31-.21.09-.37zm19.57 6.47h.11a2.59 2.59 0 0 1-.12-.24zm-.02-.22v-.22s-.08.05 0 .22zm-.05-.68v.47c.1-.04.19-.03 0-.47zm-2.32 1.33l.27.55c-.05-.12-.14-.3-.27-.55zm-.53.49c.21 0 1 .94 1 .49l-.22-.44c.36.86-1.14-1.02-.78-.05zm-6.21-5.2l.75.15c-.4-.52-.95-1.22-.79-1.49-1.58-1.35.84 1.19.04 1.34zm-2.04.05c.13-.42-.46-.83-.62-1.16a1.41 1.41 0 0 0 .62 1.16zm-2.4 5.54l1.51.28c-.22-.27-.63-.09-1.51-.28zm-7.46-3.76l-.98.08 1.37.34-.39-.42m11.03.31l.2.14-.49-.49.29.35m1.24-24.99l-1.55.82c.39.06 2.2-.67 1.55-.82zm-8.71-6.5c.74-.6 1.2-1 .33-.54-.05.13-.59.64-.33.54zm2.04-5l.65.53-.5-.45-.15-.08"/></g><use width="64" height="64" transform="matrix(.56 0 0 .56 30.25 26.97)" xlink:href="#n"/></g></svg>